<svg xmlns="http://www.w3.org/2000/svg" xmlns:xlink="http://www.w3.org/1999/xlink" width="699.082" height="699.082" viewBox="0 0 699.082 699.082"><symbol id="a" viewBox="-349.541 -349.541 699.082 699.082"><path fill="#00A7DB" d="M349.541 0c0-193.047-156.495-349.541-349.541-349.541S-349.541-193.047-349.541 0c0 193.046 156.495 349.541 349.541 349.541S349.541 193.046 349.541 0z"/><path fill="#FFF200" d="M-14.471-167.708c-1.665-.455-3.77-.754-6.232-1.18-.836-.169-1.729-.3-2.646-.421 4.854 5.457 2.63 15.126-5.077 22.038-7.72 6.926-28.622 13.135-51.031 28.238 17.611-20.103 25.875-40.749 33.595-47.676a26.103 26.103 0 0 1 5.148-3.609l-5.217.162c-2.092.116-4.246.418-6.48.627a116.428 116.428 0 0 0-11.91 2.099c.087.042.178.069.264.113 6.51 3.354 7.885 13.203 3.134 22.424-4.75 9.221-22.074 22.461-37.64 44.551 9.303-25.053 9.678-47.289 14.427-56.51a25.976 25.976 0 0 1 3.951-5.686c-.449.177-.895.335-1.345.519-6.886 2.79-13.887 6.467-20.703 11.037.292.006.582.004.876.037 7.278.817 12.069 9.532 10.91 19.841-1.158 10.307-12.635 28.846-19.32 55.029-.222-26.725-7.787-47.638-6.629-57.944.312-2.775 1.029-5.331 2.037-7.585-.412.384-.825.768-1.248 1.144l-1.787 1.636c-.6.544-1.205 1.087-1.75 1.693l-3.379 3.574c-.556.609-1.16 1.179-1.681 1.824-.525.642-1.054 1.284-1.582 1.929l-3.189 3.891-2.881 4.063c.473-.207.96-.389 1.471-.52 7.091-1.826 14.67 4.612 17.256 14.659 2.587 10.044-1.542 31.453 1.53 58.303-4.547-11.647-10.143-21.533-15.076-29.786.125.317.258.628.374.954 3.455 9.779 1.211 31.469 6.616 57.946-5.547-11.207-11.986-20.567-17.622-28.357.153.305.314.604.458.92 4.296 9.439 3.956 31.242 11.653 57.147-6.506-10.681-13.739-19.444-20.034-26.714.18.293.366.576.538.88 5.104 9.028 6.67 30.777 16.601 55.911-7.414-10.072-15.385-18.169-22.291-24.86.205.274.415.542.612.829 5.874 8.547 9.333 30.076 21.422 54.247-8.266-9.386-16.914-16.757-24.378-22.819.228.257.461.503.683.772 6.598 8.002 11.924 29.147 26.078 52.168-9.053-8.627-18.31-15.213-26.275-20.601.249.235.502.46.746.708 7.271 7.396 14.424 27.994 30.534 49.691-9.771-7.803-19.568-13.556-27.974-18.227.269.212.541.415.805.64 7.889 6.732 16.813 26.627 34.757 46.834-10.416-6.92-20.678-11.795-29.458-15.714.286.188.574.365.857.567 8.448 6.017 19.075 25.057 38.717 43.619-10.98-5.982-21.627-9.942-30.716-13.079.3.162.602.313.9.488 8.941 5.256 21.191 23.295 42.379 40.071-24.496-10.689-46.676-12.304-55.617-17.562-3.47-2.041-6.199-4.658-8.036-7.462l.159.424 1.451 3.859c.906 2.394 1.653 4.439 2.302 6.082a14.725 14.725 0 0 0 1.727 3.051c6.3-1.929 14.106 2.652 18.453 11.156 4.718 9.235 5.023 31.471 14.248 56.555-15.498-22.138-32.777-35.437-37.5-44.67-4.136-8.089-3.571-16.642 1.014-20.882-.02-.967-.176-2.388-.758-4.147-.597-1.662-1.387-3.691-2.287-6.088l-.716-1.894c-.258 2.542-.953 5.211-2.146 7.861-4.261 9.455-21.43 23.589-35.249 46.465 7.598-25.934 7.182-47.734 11.439-57.19 4.26-9.461 12.824-14.514 19.504-11.503a9.72 9.72 0 0 1 1.934 1.18l-1.182-3.635c-.604-1.903-1.289-3.87-1.897-5.936l-1.762-6.45-1.069-3.917c-.479 2.51-1.404 5.108-2.824 7.643-5.071 9.047-23.409 21.627-39.172 43.209 9.833-25.171 11.324-46.924 16.392-55.972 5.07-9.053 14.042-13.338 20.434-9.756.66.37 1.249.822 1.793 1.318-.904-4.054-1.851-8.257-2.781-12.618l-1.333-7.741c-.697 2.461-1.845 4.972-3.482 7.375-5.842 8.569-25.209 19.5-42.798 39.622 11.995-24.216 15.379-45.755 21.219-54.326 5.841-8.575 15.154-12.06 21.208-7.934a9.72 9.72 0 0 1 1.638 1.436c-.611-4.769-1.18-9.662-1.808-14.658a29.853 29.853 0 0 1-.238-2.433l-.183-2.456-.075-1.015c-.909 2.376-2.267 4.761-4.097 6.998-6.567 8.027-26.816 17.224-46.095 35.732 14.065-23.075 19.318-44.237 25.884-52.265 6.567-8.032 16.149-10.69 21.819-6.052.549.45 1.021.962 1.451 1.504-.146-3.394-.19-6.828-.292-10.293-.074-3.356-.188-6.713-.234-10.152-1.108 2.23-2.642 4.427-4.611 6.445-7.244 7.422-28.217 14.815-49.039 31.569 16.027-21.758 23.107-42.38 30.35-49.804 7.244-7.428 17.021-9.239 22.265-4.123a9.702 9.702 0 0 1 1.302 1.608l.311-7.671.748-10.984c.053-.544.102-1.092.153-1.637-1.292 2.087-2.991 4.104-5.094 5.913-7.864 6.761-29.404 12.294-51.609 27.166 17.866-20.275 26.72-40.201 34.583-46.963 7.864-6.767 17.763-7.717 22.539-2.162a9.73 9.73 0 0 1 1.084 1.582 413.61 413.61 0 0 1 2.934-19.81c-1.45 1.905-3.281 3.707-5.472 5.28-8.426 6.048-30.366 9.678-53.785 22.553 19.569-18.637 30.129-37.713 38.554-43.764 8.425-6.053 18.369-6.135 22.641-.185.341.476.617.978.863 1.493.357-1.686.722-3.37 1.101-5.053a394.13 394.13 0 0 1 3.443-14.031c-1.575 1.689-3.498 3.246-5.724 4.565-8.922 5.289-31.095 6.989-55.55 17.77 21.123-16.856 33.308-34.937 42.229-40.229 8.921-5.294 18.834-4.507 22.571 1.794.263.442.478.903.664 1.372a391.55 391.55 0 0 1 4.784-14.646c.402-1.207.827-2.404 1.259-3.598a25.848 25.848 0 0 1-5.885 3.868c-9.349 4.49-31.587 4.247-56.889 12.85 22.514-14.947 36.231-31.895 45.582-36.387 9.349-4.494 19.156-2.844 22.328 3.759.196.407.36.822.495 1.244.332-.812.662-1.621.986-2.433l1.03-2.534 1.091-2.498 2.171-4.974.541-1.236.27-.618c.042-.088.005-.024.109-.234l.075-.149.151-.299 1.208-2.386.067-.132a25.851 25.851 0 0 1-6.241 3.367c-9.705 3.657-31.837 1.471-57.794 7.831 23.734-12.924 38.879-28.608 48.586-32.266 9.706-3.659 19.331-1.16 21.914 5.694a9.766 9.766 0 0 1 .603 3.081l1.004-1.436c1.014-1.445 2.022-2.886 3.027-4.317l3.281-4.057 1.632-2.011c.537-.673 1.158-1.27 1.731-1.904l3.483-3.731c.56-.636 1.181-1.206 1.796-1.778.614-.574 1.226-1.147 1.835-1.719.279-.253.553-.511.826-.77a25.921 25.921 0 0 1-7.085.94c-10.372-.037-30.276-9.958-56.797-13.251 26.78-3.63 46.516-12.897 56.888-12.862 10.373.035 18.479 5.797 18.453 13.121a9.755 9.755 0 0 1-.558 3.162c7.671-5.504 15.64-9.873 23.484-13.151.511-.214 1.019-.402 1.529-.607a25.959 25.959 0 0 1-6.815-1.627c-9.679-3.726-24.75-20.081-48.362-32.597 26.317 6.137 48.06 4.501 57.74 8.226 9.681 3.725 15.206 11.993 12.576 18.828a9.764 9.764 0 0 1-1.54 2.632 120.807 120.807 0 0 1 15.187-3.022c2.332-.246 4.583-.581 6.769-.728l5.891-.248a26.057 26.057 0 0 1-5.471-3.778c-7.72-6.927-15.984-27.575-33.595-47.675 22.409 15.102 43.311 21.311 51.031 28.236 7.722 6.927 9.942 16.621 5.052 22.072a9.71 9.71 0 0 1-2.042 1.727c2.026.19 3.906.392 5.563.707 2.587.417 4.801.712 6.554 1.167l5.411 1.219-1.444 5.448c-.002.004-1.789-.419-5.142-1.212zm-64.81 29.94c4.48 2.308 11.359-1.743 15.018-8.846 3.659-7.104 2.964-15.055-1.516-17.362-4.481-2.31-11.359 1.74-15.019 8.844-3.658 7.104-2.964 15.055 1.517 17.364zm-70.882 362.321c3.638 7.114 10.5 11.188 14.99 8.894 4.489-2.298 5.208-10.247 1.572-17.36-3.637-7.116-10.502-11.188-14.989-8.894-4.491 2.294-5.21 10.243-1.573 17.36zm-29.982-110.501c-4.166-2.84-11.486.341-15.987 6.945-4.5 6.603-4.783 14.579-.617 17.418 4.168 2.838 11.49-.344 15.987-6.944 4.5-6.603 4.783-14.581.617-17.419zm-3.418-34.908c-3.902-3.193-11.473-.664-16.533 5.522-5.059 6.184-6.038 14.105-2.136 17.297 3.904 3.192 11.476.661 16.533-5.521 5.059-6.185 6.038-14.108 2.136-17.298zm-.356-35.075c-3.607-3.521-11.37-1.663-16.951 4.057-5.58 5.719-7.247 13.524-3.639 17.045 3.61 3.52 11.375 1.661 16.952-4.056 5.58-5.719 7.245-13.526 3.638-17.046zm2.709-34.97c-3.286-3.822-11.182-2.65-17.241 2.561-6.058 5.209-8.4 12.84-5.113 16.662 3.288 3.822 11.186 2.648 17.24-2.56 6.059-5.211 8.4-12.843 5.114-16.663zm5.753-34.6c-2.939-4.097-10.908-3.617-17.399 1.043-6.49 4.661-9.489 12.057-6.548 16.152 2.941 4.095 10.91 3.615 17.397-1.045 6.491-4.661 9.49-12.057 6.55-16.15zm8.753-33.967c-2.57-4.337-10.55-4.555-17.423-.48-6.872 4.077-10.505 11.183-7.934 15.52 2.572 4.336 10.552 4.554 17.422.479 6.874-4.077 10.508-11.184 7.935-15.519zm44.606-30.713c4.88-1.257 7.322-8.856 5.33-16.595-1.992-7.737-7.801-13.213-12.681-11.954-4.882 1.254-7.324 8.854-5.332 16.593 1.994 7.738 7.801 13.213 12.683 11.956zm-11.607 30.188c4.752-1.679 6.52-9.463 3.859-16.997s-8.925-12.481-13.677-10.801c-4.753 1.676-6.522 9.459-3.861 16.994 2.662 7.535 8.925 12.483 13.679 10.804zm-6.565 13.816c-3.309-7.273-9.982-11.653-14.569-9.565-4.588 2.086-5.672 9.994-2.362 17.268 3.309 7.274 9.98 11.654 14.571 9.567 4.587-2.088 5.668-9.996 2.36-17.27zm-20.35 9.258c-1.46-3.211-2.193-6.454-2.284-9.465a389.408 389.408 0 0 0-4.047 15.927 398.695 398.695 0 0 0-1.697 7.715c.884-1.384 2.039-2.539 3.486-3.357 4.263-2.409 9.691-1.292 14.348 2.404-4.567-5.253-8.149-9.584-9.806-13.224zm12.656 22.348c-3.932-6.955-10.962-10.736-15.349-8.256-4.389 2.479-4.777 10.452-.845 17.407 3.932 6.958 10.961 10.74 15.35 8.259 4.388-2.481 4.775-10.452.844-17.41zM-167.428-3.57c-1.791-3.169-2.813-6.439-3.134-9.513a378.15 378.15 0 0 0-3.696 24.468c.763-1.513 1.839-2.81 3.251-3.78 4.037-2.772 9.54-2.134 14.501 1.14-5.008-4.833-8.954-8.834-10.922-12.315zm14.561 21.157c-4.525-6.586-11.858-9.738-16.011-6.885-4.156 2.854-3.846 10.83.679 17.416 4.525 6.587 11.857 9.741 16.013 6.886 4.153-2.855 3.841-10.83-.681-17.417zm-18.429 12.658c-2.07-3.013-3.377-6.196-3.961-9.242-.114 1.203-.227 2.407-.345 3.606l-.764 10.892-.437 10.26c.628-1.583 1.59-2.977 2.918-4.071 3.779-3.114 9.316-2.959 14.544-.131-5.41-4.377-9.691-8.018-11.955-11.314zm16.353 19.804c-5.083-6.165-12.663-8.665-16.551-5.459-3.892 3.206-2.885 11.124 2.197 17.29 5.083 6.166 12.664 8.667 16.553 5.461 3.889-3.208 2.881-11.124-2.199-17.292zm.767 32.521c-5.602-5.698-13.371-7.526-16.964-3.993-3.598 3.533-1.902 11.333 3.699 17.031 5.602 5.698 13.372 7.528 16.967 3.994 3.592-3.534 1.898-11.332-3.702-17.032zm-15.944 15.672c-2.556-2.601-4.396-5.5-5.5-8.391l.194 2.704.175 2.436c.046.811.122 1.615.232 2.414.734 5.927 1.384 11.706 2.122 17.304.323-1.759 1.052-3.376 2.221-4.746 3.179-3.724 8.658-4.536 14.298-2.661-6.091-3.367-10.939-6.209-13.742-9.06zm19.549 16.657c-6.078-5.188-13.978-6.33-17.249-2.496-3.275 3.834-.905 11.457 5.173 16.643 6.079 5.188 13.978 6.333 17.251 2.498 3.271-3.836.901-11.456-5.175-16.645zm-14.514 17.005c-2.843-2.427-4.968-5.232-6.316-8.086l1.623 9.537c1.13 5.343 2.286 10.451 3.351 15.329.151-1.83.74-3.551 1.811-5.054 2.842-3.988 8.23-5.274 14.012-3.9-6.362-2.824-11.44-5.231-14.481-7.826zm20.93 14.886c-6.508-4.637-14.478-5.085-17.401-.98-2.927 4.105.099 11.492 6.607 16.127 6.509 4.637 14.478 5.087 17.403.981 2.921-4.106-.103-11.49-6.609-16.128zm-.253 47.24c6.889 4.05 14.867 3.802 17.422-.543 2.552-4.345-1.106-11.438-7.992-15.489-6.889-4.051-14.868-3.801-17.421.543-2.558 4.345 1.103 11.439 7.991 15.489zm-19.841-11.72c-4.598-2.071-11.252 2.334-14.536 9.622-3.282 7.285-2.173 15.188 2.424 17.26 4.6 2.069 11.254-2.339 14.535-9.622 3.283-7.286 2.173-15.19-2.423-17.26zm1.582-19.085l1.735 6.405c.599 2.048 1.271 3.989 1.865 5.873l2.072 6.42c-.025-1.87.405-3.669 1.357-5.288 2.482-4.22 7.736-5.973 13.615-5.109-6.582-2.256-11.85-4.21-15.106-6.529-3.145-2.241-5.571-4.949-7.164-7.772l1.626 6zm-11.023-14.696c-4.398-2.465-11.413 1.343-15.32 8.314-3.905 6.97-3.491 14.941.907 17.405 4.4 2.464 11.416-1.347 15.32-8.314 3.906-6.971 3.49-14.941-.907-17.405zm-2.811-70.907l.184 2.557c.49-1.62 1.322-3.083 2.543-4.282 3.492-3.432 9.021-3.762 14.477-1.402-5.773-3.886-10.355-7.14-12.898-10.226-2.339-2.838-3.927-5.916-4.769-8.916l-.025 1.577c.131 6.991.281 13.936.488 20.692zm16.485-133.929c.978-1.215 2.179-2.201 3.62-2.857 4.458-2.026 9.767-.44 14.083 3.647-4.092-5.63-7.282-10.258-8.613-14.028-1.138-3.222-1.595-6.415-1.466-9.345a171.76 171.76 0 0 0-1.998 5.512 394.952 394.952 0 0 0-5.626 17.071zm4.999-36.232c-2.182-4.545-10.111-5.46-17.313-2-7.202 3.461-11.443 10.222-9.26 14.766s10.113 5.459 17.313 1.999c7.203-3.459 11.444-10.223 9.26-14.765zm10.681-6.25l-1.096 2.467-1.035 2.502c-.657 1.615-1.336 3.227-2.005 4.848 1.047-1.045 2.278-1.861 3.698-2.363 4.616-1.631 9.766.414 13.709 4.862-3.584-5.966-6.357-10.854-7.354-14.727-.77-2.99-.987-5.909-.74-8.591-.232.457-.463.914-.701 1.366l-1.224 2.378-.153.298-.072.141-.035.08-.271.609-.543 1.222c-.722 1.63-1.449 3.265-2.178 4.908zm3.85-25.675c-1.776-4.717-9.596-6.321-17.073-3.504-7.477 2.818-12.292 9.184-10.514 13.899 1.777 4.718 9.597 6.322 17.073 3.505 7.478-2.817 12.292-9.184 10.514-13.9zm35.419 6.551c5.008.563 9.995-5.67 10.886-13.61.893-7.941-2.587-15.125-7.596-15.687-5.009-.563-9.996 5.669-10.888 13.609-.89 7.941 2.589 15.125 7.598 15.688zm-19.69-47.934c-7.99-.026-14.756 4.209-14.773 9.248-.018 5.042 6.719 9.324 14.709 9.352 7.99.028 14.756-4.208 14.772-9.249.019-5.039-6.718-9.322-14.708-9.351zm44.135-23.724c-7.458-2.869-15.288-1.317-17.098 3.385-1.811 4.705 2.96 11.105 10.417 13.975 7.458 2.87 15.288 1.319 17.098-3.386 1.81-4.704-2.961-11.103-10.417-13.974zm32.505 42.425c3.366 3.751 11.235 2.414 17.184-2.922 5.947-5.336 8.127-13.015 4.762-16.766-3.366-3.753-11.235-2.415-17.184 2.921-5.946 5.337-8.127 13.015-4.762 16.767zm17.184-48.888c-5.949-5.336-13.817-6.673-17.184-2.922-3.366 3.753-1.185 11.431 4.762 16.767 5.949 5.336 13.818 6.674 17.184 2.92 3.365-3.752 1.185-11.429-4.762-16.765zM174.344-11.579a413.433 413.433 0 0 1 2.935 19.81 9.66 9.66 0 0 1 1.083-1.582c4.776-5.555 14.676-4.604 22.54 2.162 7.863 6.763 16.718 26.688 34.583 46.963-22.205-14.872-43.744-20.404-51.609-27.166-2.103-1.808-3.802-3.825-5.094-5.913.052.545.102 1.093.153 1.637l.748 10.984.311 7.671a9.709 9.709 0 0 1 1.303-1.608c5.243-5.117 15.021-3.306 22.264 4.123 7.243 7.423 14.323 28.046 30.351 49.804-20.822-16.753-41.796-24.146-49.04-31.569-1.969-2.018-3.503-4.215-4.611-6.445-.046 3.439-.159 6.796-.233 10.152-.102 3.465-.145 6.9-.291 10.293.43-.542.9-1.054 1.45-1.504 5.671-4.639 15.252-1.98 21.819 6.052 6.566 8.028 11.818 29.19 25.884 52.265-19.279-18.508-39.527-27.706-46.096-35.732-1.83-2.237-3.188-4.622-4.097-6.998l-.075 1.015-.183 2.456a30.304 30.304 0 0 1-.238 2.433c-.628 4.996-1.197 9.889-1.808 14.658a9.681 9.681 0 0 1 1.638-1.436c6.055-4.126 15.367-.641 21.208 7.934 5.84 8.571 9.224 30.11 21.219 54.326-17.589-20.122-36.956-31.052-42.798-39.622-1.638-2.403-2.786-4.914-3.482-7.375l-1.333 7.741c-.931 4.361-1.878 8.564-2.781 12.618a9.67 9.67 0 0 1 1.793-1.318c6.392-3.582 15.364.703 20.434 9.756 5.068 9.048 6.559 30.801 16.393 55.972-15.764-21.582-34.103-34.162-39.173-43.209-1.42-2.534-2.345-5.132-2.824-7.643l-1.069 3.917-1.762 6.45c-.609 2.066-1.293 4.033-1.897 5.936l-1.183 3.635a9.71 9.71 0 0 1 1.935-1.18c6.68-3.01 15.244 2.042 19.504 11.503 4.257 9.457 3.842 31.256 11.439 57.19-13.818-22.876-30.987-37.01-35.248-46.465-1.193-2.65-1.888-5.319-2.146-7.861a734.54 734.54 0 0 0-.716 1.894c-.9 2.396-1.69 4.426-2.288 6.088-.581 1.759-.737 3.181-.757 4.147 4.583 4.24 5.149 12.793 1.013 20.882-4.722 9.234-22.002 22.532-37.499 44.67 9.224-25.084 9.529-47.32 14.247-56.555 4.348-8.503 12.153-13.084 18.453-11.156a14.725 14.725 0 0 0 1.727-3.051c.649-1.643 1.396-3.688 2.302-6.082l1.451-3.859.16-.424c-1.838 2.804-4.566 5.421-8.037 7.462-8.941 5.257-31.121 6.873-55.617 17.562 21.188-16.776 33.438-34.815 42.379-40.071.298-.176.6-.327.9-.488-9.088 3.136-19.736 7.096-30.716 13.079 19.641-18.563 30.269-37.602 38.717-43.619.282-.202.571-.379.856-.567-8.781 3.919-19.043 8.794-29.459 15.714 17.944-20.207 26.869-40.103 34.758-46.834.265-.226.536-.428.805-.64-8.405 4.671-18.202 10.423-27.974 18.227 16.11-21.697 23.263-42.295 30.534-49.691.244-.248.496-.473.745-.708-7.965 5.387-17.222 11.974-26.274 20.601 14.154-23.021 19.479-44.166 26.078-52.168.222-.269.454-.516.682-.772-7.464 6.063-16.111 13.433-24.377 22.819 12.089-24.17 15.548-45.699 21.421-54.247.197-.287.408-.555.613-.829-6.906 6.691-14.877 14.789-22.291 24.86 9.931-25.134 11.497-46.883 16.601-55.911.172-.304.358-.587.538-.88-6.295 7.27-13.528 16.033-20.034 26.714 7.697-25.905 7.357-47.708 11.653-57.147.144-.316.304-.615.457-.92-5.636 7.79-12.075 17.15-17.621 28.357 5.404-26.478 3.161-48.167 6.616-57.946.115-.326.248-.637.374-.954-4.934 8.253-10.529 18.139-15.076 29.786 3.071-26.85-1.058-48.259 1.53-58.303 2.585-10.047 10.164-16.485 17.256-14.659.511.131.997.313 1.47.52l-2.881-4.063-3.189-3.891c-.528-.645-1.057-1.287-1.582-1.929-.521-.646-1.126-1.215-1.682-1.824l-3.378-3.574c-.545-.606-1.15-1.149-1.75-1.693-.599-.547-1.193-1.093-1.787-1.636-.423-.376-.835-.76-1.248-1.144 1.009 2.254 1.726 4.81 2.037 7.585 1.157 10.307-6.407 31.22-6.629 57.944-6.687-26.184-18.163-44.723-19.32-55.029-1.159-10.309 3.632-19.023 10.909-19.841.294-.033.585-.031.876-.037-6.815-4.57-13.817-8.247-20.703-11.037-.45-.184-.896-.342-1.344-.519a25.915 25.915 0 0 1 3.95 5.686c4.75 9.221 5.124 31.457 14.428 56.51-15.566-22.09-32.891-35.33-37.64-44.551-4.752-9.221-3.376-19.07 3.134-22.424.086-.044.177-.071.264-.113a116.606 116.606 0 0 0-11.91-2.099c-2.233-.209-4.388-.511-6.48-.627l-5.216-.162a26.11 26.11 0 0 1 5.147 3.609c7.721 6.927 15.983 27.573 33.595 47.676-22.409-15.104-43.311-21.313-51.031-28.238-7.708-6.912-9.931-16.581-5.077-22.038-.917.121-1.81.252-2.646.421-2.461.426-4.567.725-6.231 1.18l-5.14 1.216-1.443-5.448 5.411-1.219c1.753-.455 3.966-.75 6.554-1.167 1.657-.315 3.537-.517 5.563-.707a9.735 9.735 0 0 1-2.042-1.727c-4.89-5.451-2.671-15.146 5.052-22.072 7.721-6.926 28.622-13.135 51.031-28.236-17.611 20.1-25.874 40.748-33.595 47.675a25.982 25.982 0 0 1-5.471 3.778l5.891.248c2.186.146 4.438.481 6.769.728 4.807.638 9.91 1.617 15.187 3.022a9.79 9.79 0 0 1-1.54-2.632c-2.63-6.835 2.895-15.104 12.576-18.828 9.681-3.725 31.423-2.089 57.74-8.226-23.611 12.516-38.683 28.871-48.362 32.597a25.961 25.961 0 0 1-6.814 1.627c.51.205 1.017.394 1.528.607 7.845 3.278 15.813 7.647 23.484 13.151a9.756 9.756 0 0 1-.559-3.162c-.025-7.324 8.08-13.086 18.453-13.121s30.108 9.232 56.888 12.862c-26.521 3.293-46.425 13.214-56.797 13.251a25.926 25.926 0 0 1-7.085-.94c.273.259.548.517.826.77l1.835 1.719c.616.572 1.236 1.143 1.797 1.778l3.483 3.731c.573.635 1.194 1.231 1.731 1.904l1.632 2.011 3.281 4.057c1.005 1.432 2.014 2.872 3.026 4.317l1.006 1.436a9.737 9.737 0 0 1 .602-3.081c2.582-6.854 12.208-9.354 21.914-5.694 9.707 3.657 24.853 19.342 48.586 32.266-25.957-6.36-48.089-4.174-57.794-7.831a25.832 25.832 0 0 1-6.241-3.367l.066.132 1.209 2.386.151.299.075.149c.104.21.068.146.109.234l.27.618.541 1.236 2.171 4.974 1.092 2.498 1.029 2.534c.325.812.655 1.621.986 2.433.136-.422.3-.837.495-1.244 3.172-6.603 12.979-8.253 22.328-3.759 9.35 4.492 23.067 21.439 45.581 36.387-25.302-8.603-47.54-8.359-56.889-12.85a25.855 25.855 0 0 1-5.886-3.868c.433 1.193.856 2.391 1.26 3.598a395.87 395.87 0 0 1 4.783 14.646c.187-.469.401-.93.664-1.372 3.736-6.301 13.65-7.088 22.571-1.794 8.922 5.292 21.106 23.372 42.229 40.229-24.455-10.78-46.628-12.48-55.55-17.77-2.226-1.319-4.148-2.876-5.724-4.565a394.119 394.119 0 0 1 3.442 14.031c.38 1.683.744 3.367 1.102 5.053a9.505 9.505 0 0 1 .863-1.493c4.271-5.95 14.216-5.868 22.641.185 8.425 6.051 18.984 25.127 38.554 43.764-23.42-12.879-45.361-16.509-53.787-22.557-2.19-1.573-4.021-3.375-5.471-5.28zm11.98 37.34c6.055 5.208 13.952 6.382 17.24 2.56 3.287-3.822.944-11.453-5.113-16.662-6.06-5.211-13.955-6.383-17.241-2.561-3.286 3.821-.945 11.453 5.114 16.663zm1.234 35.354c5.577 5.717 13.342 7.576 16.951 4.056 3.608-3.521 1.942-11.326-3.638-17.045-5.582-5.72-13.345-7.578-16.951-4.057-3.608 3.52-1.943 11.327 3.638 17.046zm-1.86 35.327c5.058 6.182 12.63 8.713 16.533 5.521 3.902-3.192 2.923-11.113-2.136-17.297-5.061-6.186-12.632-8.715-16.533-5.522-3.901 3.19-2.922 11.113 2.136 17.298zm-4.936 35.029c4.498 6.601 11.819 9.783 15.987 6.944 4.166-2.839 3.883-10.815-.617-17.418-4.501-6.604-11.821-9.785-15.987-6.945-4.166 2.838-3.882 10.816.617 17.419zm-47.161 84.615c-3.636 7.113-2.917 15.062 1.572 17.36 4.49 2.294 11.353-1.779 14.989-8.894 3.638-7.117 2.919-15.066-1.571-17.36-4.488-2.294-11.353 1.779-14.99 8.894zM64.263-146.613c3.659 7.103 10.538 11.153 15.019 8.846 4.48-2.31 5.175-10.261 1.517-17.364-3.66-7.104-10.538-11.153-15.02-8.844-4.48 2.307-5.175 10.258-1.516 17.362zm-33.329-3.454c5.948 5.336 13.817 6.673 17.183 2.922 3.366-3.753 1.186-11.431-4.762-16.767-5.948-5.336-13.817-6.674-17.184-2.921-3.365 3.751-1.185 11.43 4.763 16.766zm17.182-48.889c-3.365-3.751-11.234-2.414-17.183 2.922-5.947 5.336-8.128 13.014-4.763 16.765 3.366 3.754 11.235 2.416 17.184-2.92 5.948-5.336 8.128-13.014 4.762-16.767zm49.604 12.769c-1.811-4.702-9.64-6.254-17.098-3.385-7.457 2.871-12.228 9.271-10.417 13.974 1.81 4.705 9.64 6.256 17.097 3.386 7.458-2.869 12.228-9.269 10.418-13.975zm-3.539 54.664c.892 7.94 5.878 14.173 10.887 13.61s8.487-7.747 7.597-15.688c-.892-7.94-5.878-14.173-10.888-13.609-5.009.562-8.489 7.745-7.596 15.687zm45.349-25.076c-.018-5.039-6.783-9.274-14.773-9.248-7.99.028-14.727 4.312-14.708 9.351.017 5.041 6.782 9.277 14.772 9.249 7.991-.027 14.728-4.31 14.709-9.352zM174.639-43.95c6.87 4.075 14.851 3.857 17.422-.479 2.572-4.337-1.062-11.442-7.934-15.52-6.873-4.074-14.853-3.856-17.423.48-2.573 4.336 1.061 11.443 7.935 15.519zm-1.856 209.885c3.904 6.968 10.92 10.778 15.32 8.314 4.397-2.464 4.813-10.435.907-17.405-3.908-6.972-10.923-10.78-15.321-8.314-4.396 2.463-4.811 10.433-.906 17.405zm-10.957 33.635c3.28 7.283 9.935 11.691 14.534 9.622 4.597-2.072 5.706-9.975 2.424-17.26-3.283-7.287-9.938-11.693-14.535-9.622-4.596 2.07-5.706 9.974-2.423 17.26zm-34.84-6.083c2.556 4.346 10.532 4.593 17.422.543 6.888-4.05 10.548-11.144 7.991-15.49-2.554-4.344-10.532-4.594-17.421-.543-6.885 4.052-10.543 11.145-7.992 15.49zm28.652-16.851c.952 1.618 1.383 3.418 1.357 5.288l2.072-6.42c.594-1.884 1.266-3.825 1.864-5.873l1.735-6.405 1.626-6c-1.593 2.824-4.02 5.532-7.164 7.772-3.256 2.319-8.523 4.273-15.106 6.529 5.879-.864 11.134.889 13.616 5.109zm-18.091-13.719c2.924 4.106 10.894 3.656 17.402-.981 6.508-4.635 9.534-12.022 6.606-16.127-2.923-4.105-10.893-3.657-17.4.98-6.506 4.639-9.531 12.023-6.608 16.128zm27.069-19.289c1.071 1.503 1.66 3.225 1.812 5.054 1.064-4.878 2.221-9.986 3.351-15.329a31790.8 31790.8 0 0 0 1.623-9.537c-1.348 2.854-3.473 5.66-6.316 8.086-3.041 2.595-8.119 5.002-14.479 7.825 5.78-1.373 11.167-.086 14.009 3.901zm-19.22-12.085c3.272 3.835 11.172 2.69 17.251-2.498 6.078-5.186 8.447-12.809 5.173-16.643-3.271-3.833-11.171-2.691-17.249 2.496-6.077 5.19-8.445 12.81-5.175 16.645zm25.281-21.58c1.17 1.37 1.897 2.987 2.221 4.746.737-5.598 1.389-11.377 2.122-17.304.11-.799.187-1.604.232-2.414l.175-2.436.194-2.704c-1.105 2.89-2.944 5.79-5.501 8.391-2.803 2.851-7.651 5.692-13.741 9.06 5.641-1.875 11.119-1.063 14.298 2.661zm-20.202-10.36c3.595 3.534 11.365 1.704 16.967-3.994 5.601-5.698 7.297-13.498 3.698-17.031-3.593-3.533-11.362-1.706-16.964 3.993-5.6 5.699-7.294 13.497-3.701 17.032zm23.299-23.707c1.221 1.2 2.053 2.662 2.542 4.282l.185-2.557c.207-6.756.357-13.7.488-20.692l-.024-1.577c-.843 3-2.43 6.078-4.77 8.916-2.543 3.085-7.125 6.339-12.898 10.226 5.455-2.359 10.985-2.03 14.477 1.402zm-21.03-8.555c3.89 3.207 11.47.705 16.554-5.461 5.082-6.166 6.089-14.084 2.196-17.29-3.888-3.206-11.468-.706-16.551 5.459-5.081 6.168-6.088 14.084-2.199 17.292zm21.14-25.651c1.328 1.094 2.29 2.488 2.919 4.071l-.437-10.26-.765-10.892c-.118-1.199-.23-2.403-.346-3.606-.582 3.046-1.891 6.229-3.96 9.242-2.265 3.295-6.545 6.937-11.957 11.313 5.23-2.828 10.767-2.982 14.546.132zm-21.697-6.686c4.155 2.854 11.488-.299 16.014-6.886 4.523-6.585 4.835-14.562.679-17.416-4.153-2.854-11.486.299-16.012 6.885-4.523 6.587-4.835 14.562-.681 17.417zm18.819-27.4c1.413.971 2.487 2.268 3.252 3.78a378.254 378.254 0 0 0-3.696-24.468c-.32 3.073-1.344 6.344-3.134 9.513-1.969 3.481-5.914 7.482-10.922 12.314 4.96-3.272 10.464-3.911 14.5-1.139zm-22.199-4.765c4.39 2.481 11.419-1.301 15.351-8.259 3.933-6.955 3.545-14.928-.845-17.407-4.387-2.48-11.417 1.301-15.349 8.256-3.931 6.958-3.544 14.929.843 17.41zM165.161-26.1c1.447.818 2.603 1.974 3.486 3.357a400.343 400.343 0 0 0-1.697-7.715 389.824 389.824 0 0 0-4.047-15.927c-.09 3.011-.822 6.254-2.283 9.465-1.657 3.64-5.238 7.971-9.807 13.224 4.657-3.696 10.084-4.813 14.348-2.404zm-22.531-2.807c4.591 2.087 11.262-2.293 14.57-9.567 3.311-7.273 2.228-15.182-2.361-17.268-4.587-2.088-11.26 2.292-14.568 9.565s-2.228 15.182 2.359 17.27zm-8.926-31.086c4.755 1.679 11.018-3.269 13.68-10.804 2.661-7.535.893-15.318-3.861-16.994-4.752-1.681-11.017 3.267-13.678 10.801-2.66 7.534-.892 15.318 3.859 16.997zm-4.254-58.736c-4.88-1.259-10.689 4.217-12.682 11.954-1.993 7.738.449 15.338 5.329 16.595 4.883 1.257 10.689-4.219 12.684-11.956 1.993-7.74-.449-15.34-5.331-16.593zm21.55 8.166c7.477 2.817 15.296 1.213 17.073-3.505 1.777-4.716-3.038-11.081-10.514-13.899-7.478-2.817-15.297-1.213-17.074 3.504-1.778 4.715 3.037 11.082 10.515 13.9zm-4.533 16.743l-1.035-2.502-1.096-2.467-2.179-4.908-.543-1.222-.271-.609-.035-.08-.072-.141-.153-.298-1.224-2.378c-.236-.452-.468-.909-.701-1.366.247 2.682.031 5.601-.739 8.591-.997 3.872-3.771 8.761-7.354 14.727 3.942-4.448 9.091-6.493 13.708-4.862 1.42.502 2.65 1.318 3.698 2.363-.669-1.622-1.348-3.233-2.004-4.848zm17.81 16.046c7.2 3.46 15.131 2.545 17.313-1.999s-2.058-11.305-9.261-14.766c-7.202-3.46-15.131-2.545-17.313 2-2.183 4.542 2.058 11.306 9.261 14.765zm-9.888 4.396a171.097 171.097 0 0 0-1.998-5.512c.129 2.93-.328 6.123-1.465 9.345-1.332 3.771-4.521 8.398-8.614 14.028 4.317-4.088 9.627-5.674 14.084-3.647 1.44.656 2.642 1.643 3.62 2.857a392.23 392.23 0 0 0-5.627-17.071zm45.015 65.072c2.94-4.096-.059-11.491-6.548-16.152-6.492-4.66-14.46-5.14-17.399-1.043-2.94 4.093.059 11.489 6.55 16.15 6.487 4.661 14.456 5.14 17.397 1.045zM25.78-140.589c6.927 7.721 13.136 28.622 28.237 51.031-20.1-17.61-40.748-25.874-47.675-33.595a25.848 25.848 0 0 1-3.999-5.89c-.042 7.037-.091 15.043-.146 23.837a9.763 9.763 0 0 1 1.512-1.746c5.451-4.89 15.146-2.671 22.071 5.052 6.927 7.721 13.136 28.622 28.237 51.031C33.918-68.48 13.27-76.743 6.343-84.464c-1.816-2.025-3.225-4.198-4.232-6.391l-.129 20.832-.016 3.824a9.766 9.766 0 0 1 1.742-2.064c5.451-4.891 15.146-2.671 22.071 5.052 6.927 7.721 13.136 28.622 28.237 51.031C33.918-29.792 13.27-38.055 6.343-45.775c-1.943-2.166-3.414-4.502-4.432-6.851l-.064 15.824-.032 9.572a9.772 9.772 0 0 1 1.895-2.346c5.451-4.891 15.146-2.671 22.071 5.052 6.927 7.721 13.136 28.621 28.237 51.03C33.918 8.896 13.27.634 6.343-7.087c-2.034-2.268-3.556-4.721-4.573-7.18l-.09 25.974a9.748 9.748 0 0 1 2.029-2.594c5.451-4.89 15.145-2.671 22.071 5.051 6.927 7.721 13.136 28.621 28.237 51.031-20.1-17.61-40.748-25.873-47.675-33.594-2.118-2.362-3.69-4.926-4.706-7.486l-.038 11.291c-.009 5.07-.02 10.136-.028 15.193.543-1.043 1.242-1.993 2.14-2.797 5.451-4.89 15.146-2.67 22.071 5.05 6.927 7.721 13.136 28.622 28.237 51.031-20.1-17.61-40.748-25.873-47.675-33.594-2.179-2.43-3.785-5.072-4.797-7.706l-.05 26.839a9.795 9.795 0 0 1 2.213-2.933c5.451-4.89 15.146-2.67 22.071 5.05 6.927 7.721 13.136 28.622 28.237 51.031-20.1-17.609-40.748-25.873-47.675-33.594-2.238-2.495-3.863-5.215-4.869-7.919l-.013 6.555c-.008 7.026-.016 13.907-.022 20.604a9.83 9.83 0 0 1 2.271-3.039c5.451-4.89 15.146-2.67 22.071 5.05 6.927 7.721 13.136 28.622 28.237 51.031-20.1-17.609-40.748-25.873-47.675-33.594-2.277-2.539-3.918-5.31-4.918-8.061l-.03 27.382a9.808 9.808 0 0 1 2.314-3.12c5.451-4.89 15.146-2.67 22.071 5.05 6.927 7.721 13.136 28.622 28.237 51.031-20.1-17.609-40.748-25.873-47.675-33.594-2.313-2.578-3.967-5.396-4.962-8.19-.013 10.479-.022 19.786-.031 27.592a9.843 9.843 0 0 1 2.359-3.202c5.451-4.89 15.146-2.67 22.071 5.051 6.927 7.721 13.136 28.622 28.237 51.031-20.1-17.609-40.748-25.873-47.675-33.594-2.349-2.618-4.017-5.483-5.006-8.318l-.006 5.61c.009 2.088-.055 3.865.107 5.305.122 1.169.327 2.105.527 2.819 6.215 1.468 10.815 8.932 10.815 18.217 0 10.373-9.335 30.077-13.057 56.842-3.204-26.531-13.057-46.47-13.057-56.842 0-9.285 4.601-16.749 10.815-18.217.2-.714.405-1.65.527-2.819.161-1.44.098-3.217.107-5.305l-.005-4.197c-1.017 2.366-2.496 4.722-4.455 6.905-6.926 7.721-27.575 15.984-47.676 33.594 15.103-22.409 21.312-43.31 28.238-51.031 6.926-7.721 16.621-9.94 22.071-5.051a9.787 9.787 0 0 1 1.807 2.184l-.029-25.188c-1.016 2.333-2.48 4.652-4.411 6.804-6.926 7.721-27.575 15.984-47.676 33.594 15.103-22.409 21.312-43.31 28.238-51.031 6.926-7.721 16.621-9.94 22.071-5.05a9.733 9.733 0 0 1 1.762 2.103l-.028-25.004c-1.014 2.297-2.465 4.581-4.367 6.701-6.926 7.721-27.575 15.984-47.676 33.594 15.103-22.409 21.312-43.31 28.238-51.031 6.926-7.721 16.621-9.94 22.071-5.05a9.732 9.732 0 0 1 1.718 2.029l-.022-19.594-.01-5.227c-1.012 2.26-2.448 4.504-4.319 6.591-6.926 7.721-27.575 15.984-47.676 33.594 15.103-22.409 21.312-43.31 28.238-51.031 6.926-7.721 16.621-9.94 22.071-5.05a9.746 9.746 0 0 1 1.66 1.949l-.047-24.571c-1.008 2.203-2.421 4.388-4.246 6.422-6.926 7.721-27.575 15.984-47.676 33.594 15.103-22.41 21.312-43.31 28.238-51.031 6.926-7.721 16.621-9.94 22.071-5.05a9.718 9.718 0 0 1 1.586 1.849c-.009-4.742-.019-9.491-.027-14.244l-.034-10.022c-1.002 2.134-2.389 4.246-4.158 6.218-6.926 7.721-27.575 15.984-47.676 33.594 15.103-22.41 21.312-43.31 28.238-51.031C-18.854 6.442-9.16 4.223-3.709 9.113a9.737 9.737 0 0 1 1.475 1.696c-.029-8.021-.056-15.981-.083-23.837-.991 2.04-2.333 4.055-4.025 5.941C-13.268.634-33.917 8.896-54.018 26.507c15.103-22.409 21.312-43.31 28.238-51.03 6.926-7.723 16.621-9.942 22.071-5.052.511.459.945.973 1.34 1.514l-.03-8.74-.06-14.646a25.974 25.974 0 0 1-3.883 5.672c-6.926 7.721-27.575 15.983-47.676 33.595 15.102-22.41 21.311-43.311 28.238-51.032 6.926-7.723 16.621-9.942 22.071-5.052.445.399.83.843 1.188 1.305l-.013-3.064-.121-19.736a26.096 26.096 0 0 1-3.687 5.296c-6.926 7.721-27.575 15.983-47.676 33.595C-38.916-73.278-32.707-94.18-25.78-101.9c6.926-7.723 16.621-9.941 22.071-5.052.345.31.662.64.955.987l-.135-22.036a26.265 26.265 0 0 1-3.453 4.849c-6.926 7.721-27.575 15.984-47.676 33.595 15.103-22.409 21.312-43.311 28.238-51.031 6.926-7.723 16.621-9.941 22.071-5.052.258.231.488.484.716.737l-.1-16.34h5.634l-.104 17.022a9.74 9.74 0 0 1 1.272-1.42c5.451-4.889 15.145-2.671 22.071 5.052zM9.139-125.66c5.336 5.947 13.014 8.128 16.767 4.762 3.751-3.365 2.414-11.234-2.922-17.183-5.336-5.947-13.014-8.128-16.766-4.762-3.753 3.365-2.415 11.235 2.921 17.183zm0 38.688c5.336 5.947 13.014 8.128 16.767 4.762 3.751-3.365 2.414-11.234-2.922-17.183-5.336-5.947-13.014-8.128-16.766-4.762-3.753 3.366-2.415 11.235 2.921 17.183zm0 38.689c5.336 5.947 13.014 8.128 16.767 4.762 3.751-3.365 2.414-11.234-2.922-17.184-5.336-5.946-13.014-8.127-16.766-4.762-3.753 3.366-2.415 11.236 2.921 17.184zm0 38.687c5.336 5.948 13.014 8.129 16.767 4.763 3.751-3.365 2.414-11.234-2.922-17.184-5.336-5.946-13.014-8.127-16.766-4.762-3.753 3.367-2.415 11.236 2.921 17.183zm0 38.689c5.336 5.948 13.014 8.128 16.767 4.762 3.751-3.366 2.414-11.234-2.922-17.183-5.337-5.947-13.014-8.128-16.766-4.763-3.753 3.366-2.415 11.236 2.921 17.184zm0 38.687c5.336 5.948 13.014 8.129 16.767 4.763 3.751-3.366 2.414-11.235-2.922-17.182-5.336-5.948-13.014-8.129-16.766-4.763-3.753 3.365-2.415 11.235 2.921 17.182zm0 38.688c5.336 5.948 13.014 8.129 16.767 4.763 3.751-3.366 2.414-11.235-2.922-17.182-5.336-5.948-13.014-8.129-16.766-4.763-3.753 3.365-2.415 11.235 2.921 17.182zm0 38.688c5.336 5.948 13.014 8.129 16.767 4.763 3.751-3.366 2.414-11.235-2.922-17.183s-13.014-8.129-16.766-4.763c-3.753 3.366-2.415 11.235 2.921 17.183zm0 38.688c5.336 5.948 13.014 8.128 16.767 4.763 3.751-3.366 2.414-11.235-2.922-17.183s-13.014-8.129-16.766-4.763c-3.753 3.366-2.415 11.235 2.921 17.183zm0 38.688c5.336 5.948 13.014 8.128 16.767 4.763 3.751-3.366 2.414-11.235-2.922-17.183s-13.014-8.129-16.766-4.763c-3.753 3.366-2.415 11.235 2.921 17.183zm-15.357-17.183c-3.752-3.366-11.43-1.185-16.766 4.763s-6.673 13.817-2.921 17.183 11.43 1.186 16.766-4.763 6.673-13.817 2.921-17.183zm0-38.688c-3.752-3.366-11.43-1.185-16.766 4.763s-6.673 13.817-2.921 17.183 11.43 1.186 16.766-4.763c5.336-5.948 6.673-13.817 2.921-17.183zm0-38.687c-3.752-3.366-11.43-1.185-16.766 4.763s-6.673 13.817-2.921 17.183c3.752 3.366 11.43 1.186 16.766-4.763 5.336-5.949 6.673-13.818 2.921-17.183zm0-38.688c-3.752-3.366-11.43-1.185-16.766 4.763-5.336 5.947-6.673 13.816-2.921 17.182 3.752 3.366 11.43 1.186 16.766-4.763 5.336-5.947 6.673-13.817 2.921-17.182zm0-38.688c-3.752-3.366-11.43-1.185-16.766 4.763-5.336 5.947-6.673 13.816-2.921 17.182 3.752 3.366 11.43 1.186 16.766-4.763 5.336-5.947 6.673-13.817 2.921-17.182zm0-38.689c-3.752-3.365-11.43-1.185-16.766 4.763-5.336 5.949-6.673 13.817-2.921 17.183 3.752 3.366 11.43 1.186 16.766-4.762 5.336-5.948 6.673-13.818 2.921-17.184zm0-38.687c-3.752-3.365-11.43-1.185-16.766 4.762-5.336 5.949-6.673 13.818-2.921 17.184 3.752 3.366 11.43 1.186 16.766-4.763 5.336-5.948 6.673-13.817 2.921-17.183zm0-38.689c-3.752-3.365-11.43-1.185-16.766 4.762-5.336 5.949-6.673 13.818-2.921 17.184 3.752 3.366 11.43 1.186 16.766-4.762 5.336-5.948 6.673-13.818 2.921-17.184zm0-38.687c-3.752-3.366-11.43-1.186-16.766 4.762-5.336 5.948-6.673 13.817-2.921 17.183 3.752 3.366 11.43 1.186 16.766-4.762 5.336-5.949 6.673-13.818 2.921-17.183zm0-38.689c-3.752-3.366-11.43-1.186-16.766 4.762-5.336 5.948-6.673 13.817-2.921 17.183 3.752 3.366 11.43 1.186 16.766-4.762 5.336-5.948 6.673-13.818 2.921-17.183zm-3.358 391.517c0 7.991 4.259 14.741 9.3 14.741 5.042 0 9.3-6.75 9.3-14.741s-4.259-14.741-9.3-14.741-9.3 6.75-9.3 14.741zM-165.029-227.6c6.169 1.129 12.561-.393 19.176-4.567 6.615-4.173 10.741-9.287 12.378-15.342 1.637-6.055.513-12.159-3.372-18.316-3.885-6.156-8.912-9.8-15.081-10.929-6.169-1.13-12.562.394-19.176 4.567-6.616 4.174-10.741 9.287-12.378 15.342-1.637 6.054-.513 12.159 3.371 18.316 3.886 6.158 8.912 9.8 15.082 10.929zm-10.852-31.696c.253-4.593 2.323-8.113 6.208-10.564 3.884-2.451 7.962-2.809 12.236-1.072 4.271 1.736 8.131 5.335 11.576 10.796 3.445 5.46 5.032 10.492 4.76 15.097-.273 4.604-2.351 8.131-6.235 10.582-3.885 2.451-7.955 2.802-12.208 1.055-4.254-1.749-8.104-5.353-11.549-10.813-3.447-5.463-5.043-10.489-4.788-15.081zm54.058-37.293l-18.963 7.893.25.6.78-.324c1.44-.6 2.798-.438 4.075.486.553.427.991.972 1.314 1.636l13.887 33.365c.393 1.057.369 2.1-.071 3.128-.441 1.028-1.181 1.759-2.221 2.191l-.78.324.25.601 17.403-7.243c4.641-1.932 7.981-4.308 10.023-7.129 2.041-2.82 2.357-5.979.949-9.477-.773-1.744-1.794-3.126-3.063-4.146-2.353-1.932-5.024-2.485-8.014-1.663 2.963-1.563 5.024-3.771 6.185-6.623 1.159-2.853 1.09-5.839-.209-8.96-1.565-3.761-4.279-6.022-8.14-6.785-3.863-.764-8.414-.056-13.655 2.126zm16.969 29.267c2.307 5.657.92 9.544-4.16 11.658l-1.74.725-15.261-36.666 2.761-1.149.12-.05c2.761-1.148 5.293-1.265 7.6-.347 2.306.917 4.142 3.017 5.508 6.297 1.365 3.28 1.46 6.104.287 8.471-1.175 2.365-3.222 4.157-6.142 5.372l.225.54c2.08-.865 4.099-.92 6.058-.162 1.956.756 3.538 2.527 4.744 5.311zm9.306-38.534c1.091-.277 2.124-.128 3.1.452.974.579 1.622 1.409 1.942 2.49l8.929 35.087c.193 1.113.082 1.991-.336 2.635-.772 1.18-1.685 1.904-2.734 2.171l-.819.208.161.63 24.126-6.14c2.057-.523 3.798-.799 5.223-.825 1.423-.027 2.298-.016 2.625.036l-2.806-11.024-.614.224.176.693c.663 2.604.166 4.696-1.487 6.28-.786.78-1.802 1.353-3.051 1.716l-10.583 2.693-4.665-18.331 8.315-2.116c1.564-.354 2.981-.145 4.251.629 1.27.771 2.097 1.914 2.481 3.426l.145.567.63-.161-3.703-14.551-.63.16.128.504c.395 1.554.227 2.961-.502 4.22-.731 1.259-1.847 2.102-3.348 2.528l-8.441 2.148-4.504-17.701 8.252-2.1c3.065-.78 5.862-.553 8.39.682 2.528 1.234 4.707 3.34 6.538 6.317l.63-.16-6.167-12.112-32.63 8.304.161.63.817-.209zm83.827 17.39a13.902 13.902 0 0 0-1.766-5.498c-1.83-3.247-4.793-5.283-8.891-6.107-1.205-.264-2.303-.342-3.294-.235-3.06.327-5.71 1.417-7.952 3.271l.069.646c3.222-.434 5.942.344 8.16 2.329 1.926 1.711 3.053 4.096 3.381 7.155.332 3.102-.154 5.583-1.458 7.445-1.304 1.86-3.228 2.928-5.769 3.2l-4.331.464-4.05-37.809c-.12-1.121.186-2.123.92-3.008.732-.886 1.659-1.388 2.78-1.507l.84-.091-.069-.646-19.648 2.104.069.646.84-.09c1.12-.12 2.121.175 3.004.887.882.712 1.405 1.625 1.568 2.741l3.871 36.129c.115 1.076-.199 2.015-.94 2.813-.743.799-1.674 1.258-2.794 1.378l-.84.09.069.646 21.586-2.313c5.256-.563 9.1-2.109 11.532-4.635 2.504-2.662 3.542-5.998 3.113-10.005zm37.256-30.49c1.123.066 1.973.398 2.545.997.936 1.053 1.393 2.143 1.369 3.271l-.977 16.547-21.023-1.241.973-16.481c.066-1.125.535-2.063 1.404-2.814s1.865-1.095 2.99-1.028l.779.046.104-.645-19.727-1.164-.038.648.843.05c1.125.066 2.063.522 2.817 1.371.752.847 1.118 1.834 1.095 2.962l-2.122 35.947a4.185 4.185 0 0 1-1.436 2.813c-.848.752-1.834 1.096-2.958 1.029l-.843-.05-.039.649 19.726 1.164-.027-.652-.777-.047c-1.125-.066-2.076-.523-2.85-1.372-.775-.85-1.129-1.836-1.063-2.96l.984-16.677 21.023 1.241-.984 16.676c-.109 1.122-.588 2.06-1.436 2.813s-1.834 1.097-2.959 1.03l-.844-.05-.037.649 19.725 1.164.039-.649-.844-.05c-1.125-.066-2.074-.524-2.85-1.372-.773-.85-1.129-1.836-1.063-2.961l2.123-35.947c.066-1.125.533-2.063 1.402-2.814.869-.753 1.865-1.095 2.99-1.028l.844.05.039-.648-19.727-1.164-.037.648.847.049zm29.508 3.318c1.098.251 1.948.855 2.552 1.816.603.96.8 1.994.591 3.103l-8.064 35.296c-.336 1.078-.836 1.809-1.5 2.19-1.227.697-2.368.926-3.424.685l-.823-.188-.146.634 24.27 5.545c2.069.474 3.744 1.022 5.024 1.648 1.279.626 2.053 1.035 2.319 1.229l2.534-11.089-.648-.081-.159.696c-.599 2.619-1.995 4.256-4.189 4.911-1.055.336-2.221.381-3.497.134l-10.646-2.433 4.214-18.439 8.364 1.911c1.553.398 2.719 1.231 3.496 2.499.777 1.267.992 2.66.645 4.182l-.13.57.634.145 3.344-14.638-.633-.146-.116.508c-.357 1.562-1.148 2.737-2.372 3.524-1.225.787-2.602 1.028-4.133.723l-8.491-1.939 4.068-17.807 8.302 1.896c3.083.705 5.469 2.184 7.154 4.436s2.664 5.119 2.935 8.604l.634.145.038-13.593-32.824-7.499-.145.634.822.188zm72.642 22.169c1.041.43 1.735 1.02 2.082 1.772.542 1.301.618 2.479.229 3.539l-6.313 15.325-19.473-8.021 6.288-15.266c.43-1.042 1.177-1.776 2.244-2.204 1.066-.429 2.12-.427 3.162.003l.722.297.308-.576-18.271-7.526-.248.601.781.322c1.042.429 1.78 1.166 2.217 2.213a4.183 4.183 0 0 1 .07 3.157l-13.716 33.296c-.47 1.025-1.228 1.755-2.273 2.192-1.047.435-2.091.438-3.133.01l-.781-.322-.247.602 18.271 7.526.188-.626-.722-.297c-1.042-.43-1.791-1.172-2.246-2.227-.456-1.056-.47-2.104-.041-3.145l6.363-15.446 19.473 8.021-6.363 15.446a4.187 4.187 0 0 1-2.273 2.191c-1.047.436-2.091.439-3.133.011l-.781-.322-.247.601 18.271 7.526.247-.601-.781-.322c-1.042-.429-1.791-1.171-2.246-2.226-.456-1.056-.469-2.104-.04-3.145l13.716-33.296c.429-1.042 1.177-1.777 2.243-2.204 1.066-.429 2.12-.427 3.163.002l.781.322.247-.602-18.271-7.526-.247.602.78.323zm53.439 29.673c.94.62 1.509 1.332 1.706 2.137.283 1.38.134 2.552-.45 3.518l-9.119 13.841-17.586-11.587 9.084-13.787c.62-.941 1.494-1.52 2.622-1.735 1.129-.218 2.163-.016 3.104.605l.651.429.412-.507-16.501-10.872-.357.543.706.465c.94.62 1.524 1.484 1.754 2.596a4.189 4.189 0 0 1-.533 3.112l-19.813 30.07c-.656.916-1.54 1.488-2.65 1.718-1.11.228-2.137.032-3.077-.588l-.705-.465-.357.543 16.5 10.872.304-.579-.651-.429c-.941-.62-1.535-1.492-1.781-2.613-.246-1.123-.06-2.154.561-3.095l9.19-13.949 17.586 11.587-9.19 13.949c-.656.916-1.54 1.489-2.65 1.718-1.11.228-2.137.032-3.077-.587l-.705-.465-.357.542 16.5 10.872.357-.543-.706-.465c-.94-.62-1.534-1.491-1.78-2.613-.246-1.123-.06-2.154.56-3.095l19.813-30.069c.62-.941 1.493-1.521 2.622-1.736 1.129-.217 2.163-.015 3.104.605l.705.465.358-.543-16.501-10.872-.357.543.704.464zm15.661 67.43c-1.602-1.584-2.376-3.443-2.322-5.574.055-2.131 1.305-4.484 3.753-7.059.358-.377.914-.836 1.666-1.375 2.199-1.559 4.243-2.244 6.134-2.063 1.89.183 3.54.945 4.954 2.291l1.46 1.388.448-.472c-1.077-1.383-1.144-3.449-.202-6.201 2.111-6.244 3.362-10.168 3.751-11.772.696-2.807.485-5.43-.635-7.869-1.117-2.439-3.044-4.958-5.775-7.556l-4.616-4.391-.448.472c1.196 1.195 1.963 2.433 2.301 3.713.647 2.588.083 8.21-1.692 16.869-.678 3.481-.391 6.385.862 8.714-2.75-2.139-5.622-2.955-8.613-2.45-2.991.503-5.39 1.706-7.195 3.604-1.808 1.9-2.957 3.738-3.448 5.513-.492 1.774-.519 3.499-.078 5.174.85 3.32 2.799 6.429 5.844 9.325l16.153 15.365.449-.473-.613-.582c-.815-.776-1.237-1.73-1.267-2.864-.027-1.135.33-2.122 1.075-2.969l24.861-26.141a4.556 4.556 0 0 1 1.813-1.058c1.522-.406 2.849-.07 3.979 1.003l.613.583.448-.471-14.319-13.617-.447.471.612.582c.816.776 1.24 1.731 1.268 2.865.029 1.133-.329 2.123-1.076 2.969l-26.114 27.459-.142-.135-2.025-1.926c-.631-.595-1.101-1.043-1.417-1.342zm-365.856-22.063l-.443-.476-.618.577c-.824.769-1.811 1.141-2.959 1.115-1.15-.024-2.108-.448-2.876-1.272l-24.565-26.329c-.769-.824-1.126-1.81-1.07-2.958.054-1.147.494-2.105 1.318-2.874l.618-.576-.443-.476-14.448 13.479.443.476.618-.576c.824-.769 1.649-1.154 2.478-1.156 1.408.049 2.512.471 3.313 1.265l11.307 12.119 1.907 2.044 10.796 11.571 1.924 2.063-6.135 5.724-9.263 8.643-2.147-2.301-10.573-11.332-1.907-2.044-11.263-12.072c-.769-.824-1.125-1.81-1.07-2.957.054-1.147.494-2.105 1.319-2.875l.57-.532-.396-.52-14.448 13.48.443.476.618-.577c.823-.768 1.801-1.133 2.935-1.094a4.187 4.187 0 0 1 2.9 1.25l24.565 26.33c.737.854 1.085 1.847 1.046 2.979-.04 1.134-.471 2.084-1.294 2.853l-.618.576.443.476 14.448-13.48-.021.009 5.62-5.243 2.488-2.322-.007.019 14.447-13.482z"/></symbol><use xlink:href="#a" width="699.082" height="699.082" x="-349.541" y="-349.541" transform="matrix(1 0 0 -1 349.541 349.54)" overflow="visible"/></svg>