<?xml version="1.0" encoding="utf-8"?>
<!-- Generator: Adobe Illustrator 16.0.0, SVG Export Plug-In . SVG Version: 6.00 Build 0)  -->
<!DOCTYPE svg PUBLIC "-//W3C//DTD SVG 1.1//EN" "http://www.w3.org/Graphics/SVG/1.1/DTD/svg11.dtd">
<svg version="1.1" id="rounded" xmlns="http://www.w3.org/2000/svg" xmlns:xlink="http://www.w3.org/1999/xlink" x="0px" y="0px"
	 width="699.082px" height="699.082px" viewBox="0 0 699.082 699.082" enable-background="new 0 0 699.082 699.082"
	 xml:space="preserve">
<symbol  id="New_Symbol" viewBox="-349.541 -349.541 699.082 699.082">
	<path fill="#00A7DB" d="M349.541,0c0-193.047-156.495-349.541-349.541-349.541c-193.046,0-349.541,156.494-349.541,349.541
		c0,193.046,156.495,349.541,349.541,349.541C193.046,349.541,349.541,193.046,349.541,0z"/>
	<path fill="#FFF200" d="M-14.471-167.708c-1.665-0.455-3.77-0.754-6.232-1.18c-0.836-0.169-1.729-0.3-2.646-0.421
		c4.854,5.457,2.63,15.126-5.077,22.038c-7.72,6.926-28.622,13.135-51.031,28.238c17.611-20.103,25.875-40.749,33.595-47.676
		c1.641-1.472,3.381-2.667,5.148-3.609c-1.686,0.053-3.417,0.106-5.217,0.162c-2.092,0.116-4.246,0.418-6.48,0.627
		c-3.793,0.462-7.789,1.154-11.91,2.099c0.087,0.042,0.178,0.069,0.264,0.113c6.51,3.354,7.885,13.203,3.134,22.424
		c-4.75,9.221-22.074,22.461-37.64,44.551c9.303-25.053,9.678-47.289,14.427-56.51c1.118-2.169,2.466-4.071,3.951-5.686
		c-0.449,0.177-0.895,0.335-1.345,0.519c-6.886,2.79-13.887,6.467-20.703,11.037c0.292,0.006,0.582,0.004,0.876,0.037
		c7.278,0.817,12.069,9.532,10.91,19.841c-1.158,10.307-12.635,28.846-19.32,55.029c-0.222-26.725-7.787-47.638-6.629-57.944
		c0.312-2.775,1.029-5.331,2.037-7.585c-0.412,0.384-0.825,0.768-1.248,1.144c-0.594,0.543-1.189,1.089-1.787,1.636
		c-0.6,0.544-1.205,1.087-1.75,1.693c-1.12,1.185-2.246,2.377-3.379,3.574c-0.556,0.609-1.16,1.179-1.681,1.824
		c-0.525,0.642-1.054,1.284-1.582,1.929c-1.057,1.29-2.121,2.588-3.189,3.891c-0.956,1.348-1.917,2.702-2.881,4.063
		c0.473-0.207,0.96-0.389,1.471-0.52c7.091-1.826,14.67,4.612,17.256,14.659c2.587,10.044-1.542,31.453,1.53,58.303
		c-4.547-11.647-10.143-21.533-15.076-29.786c0.125,0.317,0.258,0.628,0.374,0.954c3.455,9.779,1.211,31.469,6.616,57.946
		c-5.547-11.207-11.986-20.567-17.622-28.357c0.153,0.305,0.314,0.604,0.458,0.92c4.296,9.439,3.956,31.242,11.653,57.147
		c-6.506-10.681-13.739-19.444-20.034-26.714c0.18,0.293,0.366,0.576,0.538,0.88c5.104,9.028,6.67,30.777,16.601,55.911
		c-7.414-10.072-15.385-18.169-22.291-24.86c0.205,0.274,0.415,0.542,0.612,0.829c5.874,8.547,9.333,30.076,21.422,54.247
		c-8.266-9.386-16.914-16.757-24.378-22.819c0.228,0.257,0.461,0.503,0.683,0.772c6.598,8.002,11.924,29.147,26.078,52.168
		c-9.053-8.627-18.31-15.213-26.275-20.601c0.249,0.235,0.502,0.46,0.746,0.708c7.271,7.396,14.424,27.994,30.534,49.691
		c-9.771-7.803-19.568-13.556-27.974-18.227c0.269,0.212,0.541,0.415,0.805,0.64c7.889,6.732,16.813,26.627,34.757,46.834
		c-10.416-6.92-20.678-11.795-29.458-15.714c0.286,0.188,0.574,0.365,0.857,0.567c8.448,6.017,19.075,25.057,38.717,43.619
		c-10.98-5.982-21.627-9.942-30.716-13.079c0.3,0.162,0.602,0.313,0.9,0.488c8.941,5.256,21.191,23.295,42.379,40.071
		c-24.496-10.689-46.676-12.304-55.617-17.562c-3.47-2.041-6.199-4.658-8.036-7.462c0.052,0.139,0.107,0.287,0.159,0.424
		c0.516,1.373,1,2.661,1.451,3.859c0.906,2.394,1.653,4.439,2.302,6.082c0.563,1.326,1.184,2.32,1.727,3.051
		c6.3-1.929,14.106,2.652,18.453,11.156c4.718,9.235,5.023,31.471,14.248,56.555c-15.498-22.138-32.777-35.437-37.5-44.67
		c-4.136-8.089-3.571-16.642,1.014-20.882c-0.02-0.967-0.176-2.388-0.758-4.147c-0.597-1.662-1.387-3.691-2.287-6.088
		c-0.23-0.608-0.469-1.24-0.716-1.894c-0.258,2.542-0.953,5.211-2.146,7.861c-4.261,9.455-21.43,23.589-35.249,46.465
		c7.598-25.934,7.182-47.734,11.439-57.19c4.26-9.461,12.824-14.514,19.504-11.503c0.703,0.316,1.339,0.723,1.934,1.18
		c-0.384-1.182-0.775-2.385-1.182-3.635c-0.604-1.903-1.289-3.87-1.897-5.936c-0.567-2.077-1.155-4.228-1.762-6.45
		c-0.35-1.28-0.707-2.59-1.069-3.917c-0.479,2.51-1.404,5.108-2.824,7.643c-5.071,9.047-23.409,21.627-39.172,43.209
		c9.833-25.171,11.324-46.924,16.392-55.972c5.07-9.053,14.042-13.338,20.434-9.756c0.66,0.37,1.249,0.822,1.793,1.318
		c-0.904-4.054-1.851-8.257-2.781-12.618c-0.436-2.531-0.881-5.117-1.333-7.741c-0.697,2.461-1.845,4.972-3.482,7.375
		c-5.842,8.569-25.209,19.5-42.798,39.622c11.995-24.216,15.379-45.755,21.219-54.326c5.841-8.575,15.154-12.06,21.208-7.934
		c0.612,0.417,1.147,0.908,1.638,1.436c-0.611-4.769-1.18-9.662-1.808-14.658c-0.113-0.805-0.191-1.617-0.238-2.433
		c-0.061-0.816-0.121-1.634-0.183-2.456c-0.025-0.336-0.051-0.678-0.075-1.015c-0.909,2.376-2.267,4.761-4.097,6.998
		c-6.567,8.027-26.816,17.224-46.095,35.732c14.065-23.075,19.318-44.237,25.884-52.265c6.567-8.032,16.149-10.69,21.819-6.052
		c0.549,0.45,1.021,0.962,1.451,1.504c-0.146-3.394-0.19-6.828-0.292-10.293c-0.074-3.356-0.188-6.713-0.234-10.152
		c-1.108,2.23-2.642,4.427-4.611,6.445c-7.244,7.422-28.217,14.815-49.039,31.569c16.027-21.758,23.107-42.38,30.35-49.804
		c7.244-7.428,17.021-9.239,22.265-4.123c0.503,0.491,0.924,1.037,1.302,1.608c0.104-2.55,0.207-5.097,0.311-7.671
		c0.248-3.641,0.497-7.303,0.748-10.984c0.053-0.544,0.102-1.092,0.153-1.637c-1.292,2.087-2.991,4.104-5.094,5.913
		c-7.864,6.761-29.404,12.294-51.609,27.166c17.866-20.275,26.72-40.201,34.583-46.963c7.864-6.767,17.763-7.717,22.539-2.162
		c0.424,0.494,0.772,1.028,1.084,1.582c0.812-6.591,1.793-13.204,2.934-19.81c-1.45,1.905-3.281,3.707-5.472,5.28
		c-8.426,6.048-30.366,9.678-53.785,22.553c19.569-18.637,30.129-37.713,38.554-43.764c8.425-6.053,18.369-6.135,22.641-0.185
		c0.341,0.476,0.617,0.978,0.863,1.493c0.357-1.686,0.722-3.37,1.101-5.053c1.059-4.701,2.214-9.378,3.443-14.031
		c-1.575,1.689-3.498,3.246-5.724,4.565c-8.922,5.289-31.095,6.989-55.55,17.77c21.123-16.856,33.308-34.937,42.229-40.229
		c8.921-5.294,18.834-4.507,22.571,1.794c0.263,0.442,0.478,0.903,0.664,1.372c1.507-4.932,3.099-9.82,4.784-14.646
		c0.402-1.207,0.827-2.404,1.259-3.598c-1.674,1.472-3.646,2.793-5.885,3.868c-9.349,4.49-31.587,4.247-56.889,12.85
		c22.514-14.947,36.231-31.895,45.582-36.387c9.349-4.494,19.156-2.844,22.328,3.759c0.196,0.407,0.36,0.822,0.495,1.244
		c0.332-0.812,0.662-1.621,0.986-2.433l1.03-2.534l1.091-2.498c0.727-1.664,1.45-3.321,2.171-4.974l0.541-1.236l0.27-0.618
		c0.042-0.088,0.005-0.024,0.109-0.234l0.075-0.149l0.151-0.299l1.208-2.386c0.023-0.044,0.044-0.088,0.067-0.132
		c-1.805,1.332-3.899,2.485-6.241,3.367c-9.705,3.657-31.837,1.471-57.794,7.831c23.734-12.924,38.879-28.608,48.586-32.266
		c9.706-3.659,19.331-1.16,21.914,5.694c0.378,1.003,0.562,2.037,0.603,3.081c0.335-0.479,0.67-0.958,1.004-1.436
		c1.014-1.445,2.022-2.886,3.027-4.317c1.1-1.359,2.193-2.712,3.281-4.057c0.546-0.673,1.09-1.343,1.632-2.011
		c0.537-0.673,1.158-1.27,1.731-1.904c1.167-1.251,2.33-2.495,3.483-3.731c0.56-0.636,1.181-1.206,1.796-1.778
		c0.614-0.574,1.226-1.147,1.835-1.719c0.279-0.253,0.553-0.511,0.826-0.77c-2.174,0.611-4.562,0.948-7.085,0.94
		c-10.372-0.037-30.276-9.958-56.797-13.251c26.78-3.63,46.516-12.897,56.888-12.862c10.373,0.035,18.479,5.797,18.453,13.121
		c-0.003,1.097-0.21,2.151-0.558,3.162c7.671-5.504,15.64-9.873,23.484-13.151c0.511-0.214,1.019-0.402,1.529-0.607
		c-2.208-0.213-4.509-0.74-6.815-1.627c-9.679-3.726-24.75-20.081-48.362-32.597c26.317,6.137,48.06,4.501,57.74,8.226
		c9.681,3.725,15.206,11.993,12.576,18.828c-0.374,0.972-0.903,1.843-1.54,2.632c5.276-1.405,10.38-2.385,15.187-3.022
		c2.332-0.246,4.583-0.581,6.769-0.728c2.035-0.086,3.995-0.168,5.891-0.248c-1.878-0.966-3.73-2.217-5.471-3.778
		c-7.72-6.927-15.984-27.575-33.595-47.675c22.409,15.102,43.311,21.311,51.031,28.236c7.722,6.927,9.942,16.621,5.052,22.072
		c-0.607,0.678-1.293,1.252-2.042,1.727c2.026,0.19,3.906,0.392,5.563,0.707c2.587,0.417,4.801,0.712,6.554,1.167
		c3.528,0.795,5.411,1.219,5.411,1.219l-1.444,5.448C-9.331-166.492-11.118-166.915-14.471-167.708z M-79.281-137.768
		c4.48,2.308,11.359-1.743,15.018-8.846c3.659-7.104,2.964-15.055-1.516-17.362c-4.481-2.31-11.359,1.74-15.019,8.844
		C-84.456-148.028-83.762-140.077-79.281-137.768z M-150.163,224.553c3.638,7.114,10.5,11.188,14.99,8.894
		c4.489-2.298,5.208-10.247,1.572-17.36c-3.637-7.116-10.502-11.188-14.989-8.894C-153.081,209.487-153.8,217.436-150.163,224.553z
		 M-180.145,114.052c-4.166-2.84-11.486,0.341-15.987,6.945c-4.5,6.603-4.783,14.579-0.617,17.418
		c4.168,2.838,11.49-0.344,15.987-6.944C-176.262,124.868-175.979,116.89-180.145,114.052z M-183.563,79.144
		c-3.902-3.193-11.473-0.664-16.533,5.522c-5.059,6.184-6.038,14.105-2.136,17.297c3.904,3.192,11.476,0.661,16.533-5.521
		C-180.64,90.257-179.661,82.334-183.563,79.144z M-183.919,44.069c-3.607-3.521-11.37-1.663-16.951,4.057
		c-5.58,5.719-7.247,13.524-3.639,17.045c3.61,3.52,11.375,1.661,16.952-4.056C-181.977,55.396-180.312,47.589-183.919,44.069z
		 M-181.21,9.099c-3.286-3.822-11.182-2.65-17.241,2.561c-6.058,5.209-8.4,12.84-5.113,16.662c3.288,3.822,11.186,2.648,17.24-2.56
		C-180.265,20.551-177.924,12.919-181.21,9.099z M-175.457-25.501c-2.939-4.097-10.908-3.617-17.399,1.043
		c-6.49,4.661-9.489,12.057-6.548,16.152c2.941,4.095,10.91,3.615,17.397-1.045C-175.516-14.012-172.517-21.408-175.457-25.501z
		 M-166.704-59.468c-2.57-4.337-10.55-4.555-17.423-0.48c-6.872,4.077-10.505,11.183-7.934,15.52
		c2.572,4.336,10.552,4.554,17.422,0.479C-167.765-48.026-164.131-55.133-166.704-59.468z M-122.098-90.181
		c4.88-1.257,7.322-8.856,5.33-16.595c-1.992-7.737-7.801-13.213-12.681-11.954c-4.882,1.254-7.324,8.854-5.332,16.593
		C-132.787-94.399-126.98-88.924-122.098-90.181z M-133.705-59.993c4.752-1.679,6.52-9.463,3.859-16.997
		s-8.925-12.481-13.677-10.801c-4.753,1.676-6.522,9.459-3.861,16.994C-144.722-63.262-138.459-58.314-133.705-59.993z
		 M-140.27-46.177c-3.309-7.273-9.982-11.653-14.569-9.565c-4.588,2.086-5.672,9.994-2.362,17.268
		c3.309,7.274,9.98,11.654,14.571,9.567C-138.043-30.995-136.962-38.903-140.27-46.177z M-160.62-36.919
		c-1.46-3.211-2.193-6.454-2.284-9.465c-1.458,5.272-2.81,10.586-4.047,15.927c-0.594,2.565-1.154,5.139-1.697,7.715
		c0.884-1.384,2.039-2.539,3.486-3.357c4.263-2.409,9.691-1.292,14.348,2.404C-155.381-28.948-158.963-33.279-160.62-36.919z
		 M-147.964-14.571c-3.932-6.955-10.962-10.736-15.349-8.256c-4.389,2.479-4.777,10.452-0.845,17.407
		c3.932,6.958,10.961,10.74,15.35,8.259C-144.42,0.358-144.033-7.613-147.964-14.571z M-167.428-3.57
		c-1.791-3.169-2.813-6.439-3.134-9.513c-1.505,8.154-2.739,16.327-3.696,24.468c0.763-1.513,1.839-2.81,3.251-3.78
		c4.037-2.772,9.54-2.134,14.501,1.14C-161.514,3.912-165.46-0.089-167.428-3.57z M-152.867,17.587
		c-4.525-6.586-11.858-9.738-16.011-6.885c-4.156,2.854-3.846,10.83,0.679,17.416c4.525,6.587,11.857,9.741,16.013,6.886
		C-148.033,32.149-148.345,24.174-152.867,17.587z M-171.296,30.245c-2.07-3.013-3.377-6.196-3.961-9.242
		c-0.114,1.203-0.227,2.407-0.345,3.606c-0.256,3.65-0.511,7.282-0.764,10.892c-0.146,3.442-0.292,6.862-0.437,10.26
		c0.628-1.583,1.59-2.977,2.918-4.071c3.779-3.114,9.316-2.959,14.544-0.131C-164.751,37.182-169.032,33.541-171.296,30.245z
		 M-154.943,50.049c-5.083-6.165-12.663-8.665-16.551-5.459c-3.892,3.206-2.885,11.124,2.197,17.29
		c5.083,6.166,12.664,8.667,16.553,5.461C-148.855,64.133-149.863,56.217-154.943,50.049z M-154.176,82.57
		c-5.602-5.698-13.371-7.526-16.964-3.993c-3.598,3.533-1.902,11.333,3.699,17.031c5.602,5.698,13.372,7.528,16.967,3.994
		C-146.882,96.068-148.576,88.27-154.176,82.57z M-170.12,98.242c-2.556-2.601-4.396-5.5-5.5-8.391
		c0.064,0.901,0.129,1.808,0.194,2.704c0.059,0.814,0.117,1.626,0.175,2.436c0.046,0.811,0.122,1.615,0.232,2.414
		c0.734,5.927,1.384,11.706,2.122,17.304c0.323-1.759,1.052-3.376,2.221-4.746c3.179-3.724,8.658-4.536,14.298-2.661
		C-162.469,103.935-167.317,101.093-170.12,98.242z M-150.571,114.899c-6.078-5.188-13.978-6.33-17.249-2.496
		c-3.275,3.834-0.905,11.457,5.173,16.643c6.079,5.188,13.978,6.333,17.251,2.498C-142.125,127.708-144.495,120.088-150.571,114.899
		z M-165.085,131.904c-2.843-2.427-4.968-5.232-6.316-8.086c0.552,3.246,1.095,6.432,1.623,9.537
		c1.13,5.343,2.286,10.451,3.351,15.329c0.151-1.83,0.74-3.551,1.811-5.054c2.842-3.988,8.23-5.274,14.012-3.9
		C-156.966,136.906-162.044,134.499-165.085,131.904z M-144.155,146.79c-6.508-4.637-14.478-5.085-17.401-0.98
		c-2.927,4.105,0.099,11.492,6.607,16.127c6.509,4.637,14.478,5.087,17.403,0.981C-134.625,158.812-137.649,151.428-144.155,146.79z
		 M-144.408,194.03c6.889,4.05,14.867,3.802,17.422-0.543c2.552-4.345-1.106-11.438-7.992-15.489
		c-6.889-4.051-14.868-3.801-17.421,0.543C-154.957,182.886-151.296,189.98-144.408,194.03z M-164.249,182.31
		c-4.598-2.071-11.252,2.334-14.536,9.622c-3.282,7.285-2.173,15.188,2.424,17.26c4.6,2.069,11.254-2.339,14.535-9.622
		C-158.543,192.284-159.653,184.38-164.249,182.31z M-162.667,163.225c0.598,2.207,1.176,4.343,1.735,6.405
		c0.599,2.048,1.271,3.989,1.865,5.873c0.728,2.258,1.417,4.39,2.072,6.42c-0.025-1.87,0.405-3.669,1.357-5.288
		c2.482-4.22,7.736-5.973,13.615-5.109c-6.582-2.256-11.85-4.21-15.106-6.529c-3.145-2.241-5.571-4.949-7.164-7.772
		C-163.737,159.275-163.193,161.282-162.667,163.225z M-173.69,148.529c-4.398-2.465-11.413,1.343-15.32,8.314
		c-3.905,6.97-3.491,14.941,0.907,17.405c4.4,2.464,11.416-1.347,15.32-8.314C-168.877,158.963-169.293,150.993-173.69,148.529z
		 M-176.501,77.622c0.062,0.857,0.123,1.705,0.184,2.557c0.49-1.62,1.322-3.083,2.543-4.282c3.492-3.432,9.021-3.762,14.477-1.402
		c-5.773-3.886-10.355-7.14-12.898-10.226c-2.339-2.838-3.927-5.916-4.769-8.916c-0.008,0.522-0.017,1.055-0.025,1.577
		C-176.858,63.921-176.708,70.866-176.501,77.622z M-160.016-56.307c0.978-1.215,2.179-2.201,3.62-2.857
		c4.458-2.026,9.767-0.44,14.083,3.647c-4.092-5.63-7.282-10.258-8.613-14.028c-1.138-3.222-1.595-6.415-1.466-9.345
		c-0.69,1.823-1.367,3.656-1.998,5.512C-156.386-67.764-158.26-62.064-160.016-56.307z M-155.017-92.539
		c-2.182-4.545-10.111-5.46-17.313-2c-7.202,3.461-11.443,10.222-9.26,14.766s10.113,5.459,17.313,1.999
		C-157.074-81.233-152.833-87.997-155.017-92.539z M-144.336-98.789l-1.096,2.467l-1.035,2.502
		c-0.657,1.615-1.336,3.227-2.005,4.848c1.047-1.045,2.278-1.861,3.698-2.363c4.616-1.631,9.766,0.414,13.709,4.862
		c-3.584-5.966-6.357-10.854-7.354-14.727c-0.77-2.99-0.987-5.909-0.74-8.591c-0.232,0.457-0.463,0.914-0.701,1.366l-1.224,2.378
		l-0.153,0.298l-0.072,0.141c-0.013,0.03-0.032,0.072-0.035,0.08l-0.271,0.609l-0.543,1.222
		C-142.88-102.067-143.607-100.432-144.336-98.789z M-140.486-124.464c-1.776-4.717-9.596-6.321-17.073-3.504
		c-7.477,2.818-12.292,9.184-10.514,13.899c1.777,4.718,9.597,6.322,17.073,3.505C-143.522-113.381-138.708-119.748-140.486-124.464
		z M-105.067-117.913c5.008,0.563,9.995-5.67,10.886-13.61c0.893-7.941-2.587-15.125-7.596-15.687
		c-5.009-0.563-9.996,5.669-10.888,13.609C-113.555-125.66-110.076-118.476-105.067-117.913z M-124.757-165.847
		c-7.99-0.026-14.756,4.209-14.773,9.248c-0.018,5.042,6.719,9.324,14.709,9.352c7.99,0.028,14.756-4.208,14.772-9.249
		C-110.03-161.535-116.767-165.818-124.757-165.847z M-80.622-189.571c-7.458-2.869-15.288-1.317-17.098,3.385
		c-1.811,4.705,2.96,11.105,10.417,13.975c7.458,2.87,15.288,1.319,17.098-3.386C-68.395-180.301-73.166-186.7-80.622-189.571z
		 M-48.117-147.146c3.366,3.751,11.235,2.414,17.184-2.922c5.947-5.336,8.127-13.015,4.762-16.766
		c-3.366-3.753-11.235-2.415-17.184,2.921C-49.301-158.576-51.482-150.898-48.117-147.146z M-30.933-196.034
		c-5.949-5.336-13.817-6.673-17.184-2.922c-3.366,3.753-1.185,11.431,4.762,16.767c5.949,5.336,13.818,6.674,17.184,2.92
		C-22.806-183.021-24.986-190.698-30.933-196.034z M174.344-11.579c1.142,6.605,2.122,13.219,2.935,19.81
		c0.312-0.554,0.658-1.088,1.083-1.582c4.776-5.555,14.676-4.604,22.54,2.162c7.863,6.763,16.718,26.688,34.583,46.963
		c-22.205-14.872-43.744-20.404-51.609-27.166c-2.103-1.808-3.802-3.825-5.094-5.913c0.052,0.545,0.102,1.093,0.153,1.637
		c0.251,3.682,0.5,7.344,0.748,10.984c0.104,2.574,0.207,5.121,0.311,7.671c0.379-0.571,0.799-1.117,1.303-1.608
		c5.243-5.117,15.021-3.306,22.264,4.123c7.243,7.423,14.323,28.046,30.351,49.804c-20.822-16.753-41.796-24.146-49.04-31.569
		c-1.969-2.018-3.503-4.215-4.611-6.445c-0.046,3.439-0.159,6.796-0.233,10.152c-0.102,3.465-0.145,6.9-0.291,10.293
		c0.43-0.542,0.9-1.054,1.45-1.504c5.671-4.639,15.252-1.98,21.819,6.052c6.566,8.028,11.818,29.19,25.884,52.265
		c-19.279-18.508-39.527-27.706-46.096-35.732c-1.83-2.237-3.188-4.622-4.097-6.998c-0.024,0.337-0.051,0.679-0.075,1.015
		c-0.062,0.821-0.122,1.64-0.183,2.456c-0.048,0.816-0.125,1.628-0.238,2.433c-0.628,4.996-1.197,9.889-1.808,14.658
		c0.49-0.528,1.026-1.019,1.638-1.436c6.055-4.126,15.367-0.641,21.208,7.934c5.84,8.571,9.224,30.11,21.219,54.326
		c-17.589-20.122-36.956-31.052-42.798-39.622c-1.638-2.403-2.786-4.914-3.482-7.375c-0.452,2.624-0.897,5.209-1.333,7.741
		c-0.931,4.361-1.878,8.564-2.781,12.618c0.545-0.497,1.133-0.949,1.793-1.318c6.392-3.582,15.364,0.703,20.434,9.756
		c5.068,9.048,6.559,30.801,16.393,55.972c-15.764-21.582-34.103-34.162-39.173-43.209c-1.42-2.534-2.345-5.132-2.824-7.643
		c-0.362,1.326-0.72,2.637-1.069,3.917c-0.607,2.223-1.195,4.374-1.762,6.45c-0.609,2.066-1.293,4.033-1.897,5.936
		c-0.406,1.25-0.798,2.453-1.183,3.635c0.596-0.458,1.232-0.864,1.935-1.18c6.68-3.01,15.244,2.042,19.504,11.503
		c4.257,9.457,3.842,31.256,11.439,57.19c-13.818-22.876-30.987-37.01-35.248-46.465c-1.193-2.65-1.888-5.319-2.146-7.861
		c-0.248,0.653-0.487,1.286-0.716,1.894c-0.9,2.396-1.69,4.426-2.288,6.088c-0.581,1.759-0.737,3.181-0.757,4.147
		c4.583,4.24,5.149,12.793,1.013,20.882c-4.722,9.234-22.002,22.532-37.499,44.67c9.224-25.084,9.529-47.32,14.247-56.555
		c4.348-8.503,12.153-13.084,18.453-11.156c0.543-0.731,1.164-1.725,1.727-3.051c0.649-1.643,1.396-3.688,2.302-6.082
		c0.451-1.198,0.935-2.486,1.451-3.859c0.052-0.137,0.107-0.285,0.16-0.424c-1.838,2.804-4.566,5.421-8.037,7.462
		c-8.941,5.257-31.121,6.873-55.617,17.562c21.188-16.776,33.438-34.815,42.379-40.071c0.298-0.176,0.6-0.327,0.9-0.488
		c-9.088,3.136-19.736,7.096-30.716,13.079c19.641-18.563,30.269-37.602,38.717-43.619c0.282-0.202,0.571-0.379,0.856-0.567
		c-8.781,3.919-19.043,8.794-29.459,15.714c17.944-20.207,26.869-40.103,34.758-46.834c0.265-0.226,0.536-0.428,0.805-0.64
		c-8.405,4.671-18.202,10.423-27.974,18.227c16.11-21.697,23.263-42.295,30.534-49.691c0.244-0.248,0.496-0.473,0.745-0.708
		c-7.965,5.387-17.222,11.974-26.274,20.601c14.154-23.021,19.479-44.166,26.078-52.168c0.222-0.269,0.454-0.516,0.682-0.772
		c-7.464,6.063-16.111,13.433-24.377,22.819c12.089-24.17,15.548-45.699,21.421-54.247c0.197-0.287,0.408-0.555,0.613-0.829
		c-6.906,6.691-14.877,14.789-22.291,24.86c9.931-25.134,11.497-46.883,16.601-55.911c0.172-0.304,0.358-0.587,0.538-0.88
		c-6.295,7.27-13.528,16.033-20.034,26.714c7.697-25.905,7.357-47.708,11.653-57.147c0.144-0.316,0.304-0.615,0.457-0.92
		c-5.636,7.79-12.075,17.15-17.621,28.357c5.404-26.478,3.161-48.167,6.616-57.946c0.115-0.326,0.248-0.637,0.374-0.954
		c-4.934,8.253-10.529,18.139-15.076,29.786c3.071-26.85-1.058-48.259,1.53-58.303c2.585-10.047,10.164-16.485,17.256-14.659
		c0.511,0.131,0.997,0.313,1.47,0.52c-0.965-1.36-1.925-2.715-2.881-4.063c-1.068-1.303-2.132-2.601-3.189-3.891
		c-0.528-0.645-1.057-1.287-1.582-1.929c-0.521-0.646-1.126-1.215-1.682-1.824c-1.132-1.197-2.259-2.39-3.378-3.574
		c-0.545-0.606-1.15-1.149-1.75-1.693c-0.599-0.547-1.193-1.093-1.787-1.636c-0.423-0.376-0.835-0.76-1.248-1.144
		c1.009,2.254,1.726,4.81,2.037,7.585c1.157,10.307-6.407,31.22-6.629,57.944c-6.687-26.184-18.163-44.723-19.32-55.029
		c-1.159-10.309,3.632-19.023,10.909-19.841c0.294-0.033,0.585-0.031,0.876-0.037c-6.815-4.57-13.817-8.247-20.703-11.037
		c-0.45-0.184-0.896-0.342-1.344-0.519c1.484,1.614,2.834,3.517,3.95,5.686c4.75,9.221,5.124,31.457,14.428,56.51
		c-15.566-22.09-32.891-35.33-37.64-44.551c-4.752-9.221-3.376-19.07,3.134-22.424c0.086-0.044,0.177-0.071,0.264-0.113
		c-4.12-0.944-8.116-1.637-11.91-2.099c-2.233-0.209-4.388-0.511-6.48-0.627c-1.799-0.056-3.53-0.109-5.216-0.162
		c1.767,0.942,3.507,2.138,5.147,3.609c7.721,6.927,15.983,27.573,33.595,47.676c-22.409-15.104-43.311-21.313-51.031-28.238
		c-7.708-6.912-9.931-16.581-5.077-22.038c-0.917,0.121-1.81,0.252-2.646,0.421c-2.461,0.426-4.567,0.725-6.231,1.18
		c-3.353,0.793-5.14,1.216-5.14,1.216l-1.443-5.448c0,0,1.883-0.424,5.411-1.219c1.753-0.455,3.966-0.75,6.554-1.167
		c1.657-0.315,3.537-0.517,5.563-0.707c-0.749-0.475-1.434-1.049-2.042-1.727c-4.89-5.451-2.671-15.146,5.052-22.072
		c7.721-6.926,28.622-13.135,51.031-28.236c-17.611,20.1-25.874,40.748-33.595,47.675c-1.741,1.562-3.593,2.813-5.471,3.778
		c1.896,0.08,3.855,0.162,5.891,0.248c2.186,0.146,4.438,0.481,6.769,0.728c4.807,0.638,9.91,1.617,15.187,3.022
		c-0.636-0.789-1.166-1.66-1.54-2.632c-2.63-6.835,2.895-15.104,12.576-18.828c9.681-3.725,31.423-2.089,57.74-8.226
		c-23.611,12.516-38.683,28.871-48.362,32.597c-2.306,0.887-4.607,1.414-6.814,1.627c0.51,0.205,1.017,0.394,1.528,0.607
		c7.845,3.278,15.813,7.647,23.484,13.151c-0.349-1.011-0.555-2.065-0.559-3.162c-0.025-7.324,8.08-13.086,18.453-13.121
		s30.108,9.232,56.888,12.862c-26.521,3.293-46.425,13.214-56.797,13.251c-2.523,0.008-4.91-0.329-7.085-0.94
		c0.273,0.259,0.548,0.517,0.826,0.77c0.61,0.571,1.222,1.145,1.835,1.719c0.616,0.572,1.236,1.143,1.797,1.778
		c1.154,1.236,2.316,2.48,3.483,3.731c0.573,0.635,1.194,1.231,1.731,1.904c0.542,0.668,1.086,1.338,1.632,2.011
		c1.088,1.345,2.182,2.697,3.281,4.057c1.005,1.432,2.014,2.872,3.026,4.317c0.334,0.478,0.67,0.956,1.006,1.436
		c0.04-1.044,0.224-2.078,0.602-3.081c2.582-6.854,12.208-9.354,21.914-5.694c9.707,3.657,24.853,19.342,48.586,32.266
		c-25.957-6.36-48.089-4.174-57.794-7.831c-2.342-0.882-4.437-2.035-6.241-3.367c0.022,0.044,0.044,0.088,0.066,0.132l1.209,2.386
		l0.151,0.299l0.075,0.149c0.104,0.21,0.068,0.146,0.109,0.234l0.27,0.618l0.541,1.236c0.721,1.652,1.444,3.31,2.171,4.974
		l1.092,2.498l1.029,2.534c0.325,0.812,0.655,1.621,0.986,2.433c0.136-0.422,0.3-0.837,0.495-1.244
		c3.172-6.603,12.979-8.253,22.328-3.759c9.35,4.492,23.067,21.439,45.581,36.387c-25.302-8.603-47.54-8.359-56.889-12.85
		c-2.239-1.075-4.212-2.396-5.886-3.868c0.433,1.193,0.856,2.391,1.26,3.598c1.684,4.826,3.275,9.715,4.783,14.646
		c0.187-0.469,0.401-0.93,0.664-1.372c3.736-6.301,13.65-7.088,22.571-1.794c8.922,5.292,21.106,23.372,42.229,40.229
		c-24.455-10.78-46.628-12.48-55.55-17.77c-2.226-1.319-4.148-2.876-5.724-4.565c1.229,4.653,2.383,9.33,3.442,14.031
		c0.38,1.683,0.744,3.367,1.102,5.053c0.245-0.516,0.521-1.018,0.863-1.493c4.271-5.95,14.216-5.868,22.641,0.185
		c8.425,6.051,18.984,25.127,38.554,43.764C210.182,3.379,188.241-0.251,179.815-6.299C177.625-7.872,175.794-9.674,174.344-11.579z
		 M186.324,25.761c6.055,5.208,13.952,6.382,17.24,2.56c3.287-3.822,0.944-11.453-5.113-16.662
		c-6.06-5.211-13.955-6.383-17.241-2.561C177.924,12.919,180.265,20.551,186.324,25.761z M187.558,61.115
		c5.577,5.717,13.342,7.576,16.951,4.056c3.608-3.521,1.942-11.326-3.638-17.045c-5.582-5.72-13.345-7.578-16.951-4.057
		C180.312,47.589,181.977,55.396,187.558,61.115z M185.698,96.442c5.058,6.182,12.63,8.713,16.533,5.521
		c3.902-3.192,2.923-11.113-2.136-17.297c-5.061-6.186-12.632-8.715-16.533-5.522C179.661,82.334,180.64,90.257,185.698,96.442z
		 M180.762,131.471c4.498,6.601,11.819,9.783,15.987,6.944c4.166-2.839,3.883-10.815-0.617-17.418
		c-4.501-6.604-11.821-9.785-15.987-6.945C175.979,116.89,176.263,124.868,180.762,131.471z M133.601,216.086
		c-3.636,7.113-2.917,15.062,1.572,17.36c4.49,2.294,11.353-1.779,14.989-8.894c3.638-7.117,2.919-15.066-1.571-17.36
		C144.103,204.898,137.238,208.971,133.601,216.086z M64.263-146.613c3.659,7.103,10.538,11.153,15.019,8.846
		c4.48-2.31,5.175-10.261,1.517-17.364c-3.66-7.104-10.538-11.153-15.02-8.844C61.299-161.668,60.604-153.717,64.263-146.613z
		 M30.934-150.067c5.948,5.336,13.817,6.673,17.183,2.922c3.366-3.753,1.186-11.431-4.762-16.767
		c-5.948-5.336-13.817-6.674-17.184-2.921C22.806-163.082,24.986-155.403,30.934-150.067z M48.116-198.956
		c-3.365-3.751-11.234-2.414-17.183,2.922c-5.947,5.336-8.128,13.014-4.763,16.765c3.366,3.754,11.235,2.416,17.184-2.92
		C49.302-187.525,51.482-195.203,48.116-198.956z M97.72-186.187c-1.811-4.702-9.64-6.254-17.098-3.385
		c-7.457,2.871-12.228,9.271-10.417,13.974c1.81,4.705,9.64,6.256,17.097,3.386C94.76-175.081,99.53-181.481,97.72-186.187z
		 M94.181-131.523c0.892,7.94,5.878,14.173,10.887,13.61s8.487-7.747,7.597-15.688c-0.892-7.94-5.878-14.173-10.888-13.609
		C96.768-146.648,93.288-139.465,94.181-131.523z M139.53-156.599c-0.018-5.039-6.783-9.274-14.773-9.248
		c-7.99,0.028-14.727,4.312-14.708,9.351c0.017,5.041,6.782,9.277,14.772,9.249C132.812-147.274,139.549-151.557,139.53-156.599z
		 M174.639-43.95c6.87,4.075,14.851,3.857,17.422-0.479c2.572-4.337-1.062-11.442-7.934-15.52
		c-6.873-4.074-14.853-3.856-17.423,0.48C164.131-55.133,167.765-48.026,174.639-43.95z M172.783,165.935
		c3.904,6.968,10.92,10.778,15.32,8.314c4.397-2.464,4.813-10.435,0.907-17.405c-3.908-6.972-10.923-10.78-15.321-8.314
		C169.293,150.993,168.878,158.963,172.783,165.935z M161.826,199.57c3.28,7.283,9.935,11.691,14.534,9.622
		c4.597-2.072,5.706-9.975,2.424-17.26c-3.283-7.287-9.938-11.693-14.535-9.622C159.653,184.38,158.543,192.284,161.826,199.57z
		 M126.986,193.487c2.556,4.346,10.532,4.593,17.422,0.543c6.888-4.05,10.548-11.144,7.991-15.49
		c-2.554-4.344-10.532-4.594-17.421-0.543C128.093,182.049,124.435,189.142,126.986,193.487z M155.638,176.636
		c0.952,1.618,1.383,3.418,1.357,5.288c0.655-2.03,1.344-4.163,2.072-6.42c0.594-1.884,1.266-3.825,1.864-5.873
		c0.559-2.062,1.137-4.198,1.735-6.405c0.526-1.943,1.07-3.95,1.626-6c-1.593,2.824-4.02,5.532-7.164,7.772
		c-3.256,2.319-8.523,4.273-15.106,6.529C147.901,170.663,153.156,172.416,155.638,176.636z M137.547,162.917
		c2.924,4.106,10.894,3.656,17.402-0.981c6.508-4.635,9.534-12.022,6.606-16.127c-2.923-4.105-10.893-3.657-17.4,0.98
		C137.649,151.428,134.624,158.812,137.547,162.917z M164.616,143.628c1.071,1.503,1.66,3.225,1.812,5.054
		c1.064-4.878,2.221-9.986,3.351-15.329c0.529-3.105,1.071-6.291,1.623-9.537c-1.348,2.854-3.473,5.66-6.316,8.086
		c-3.041,2.595-8.119,5.002-14.479,7.825C156.387,138.354,161.774,139.641,164.616,143.628z M145.396,131.543
		c3.272,3.835,11.172,2.69,17.251-2.498c6.078-5.186,8.447-12.809,5.173-16.643c-3.271-3.833-11.171-2.691-17.249,2.496
		C144.494,120.088,142.126,127.708,145.396,131.543z M170.677,109.963c1.17,1.37,1.897,2.987,2.221,4.746
		c0.737-5.598,1.389-11.377,2.122-17.304c0.11-0.799,0.187-1.604,0.232-2.414c0.058-0.809,0.116-1.621,0.175-2.436
		c0.064-0.896,0.129-1.802,0.194-2.704c-1.105,2.89-2.944,5.79-5.501,8.391c-2.803,2.851-7.651,5.692-13.741,9.06
		C162.02,105.427,167.498,106.239,170.677,109.963z M150.475,99.603c3.595,3.534,11.365,1.704,16.967-3.994
		c5.601-5.698,7.297-13.498,3.698-17.031c-3.593-3.533-11.362-1.706-16.964,3.993C148.576,88.27,146.882,96.068,150.475,99.603z
		 M173.774,75.896c1.221,1.2,2.053,2.662,2.542,4.282c0.062-0.852,0.123-1.7,0.185-2.557c0.207-6.756,0.357-13.7,0.488-20.692
		c-0.008-0.521-0.017-1.054-0.024-1.577c-0.843,3-2.43,6.078-4.77,8.916c-2.543,3.085-7.125,6.339-12.898,10.226
		C164.752,72.135,170.282,72.464,173.774,75.896z M152.744,67.341c3.89,3.207,11.47,0.705,16.554-5.461
		c5.082-6.166,6.089-14.084,2.196-17.29c-3.888-3.206-11.468-0.706-16.551,5.459C149.862,56.217,148.855,64.133,152.744,67.341z
		 M173.884,41.69c1.328,1.094,2.29,2.488,2.919,4.071c-0.145-3.398-0.291-6.818-0.437-10.26c-0.253-3.61-0.509-7.241-0.765-10.892
		c-0.118-1.199-0.23-2.403-0.346-3.606c-0.582,3.046-1.891,6.229-3.96,9.242c-2.265,3.295-6.545,6.937-11.957,11.313
		C164.568,38.73,170.105,38.576,173.884,41.69z M152.187,35.004c4.155,2.854,11.488-0.299,16.014-6.886
		c4.523-6.585,4.835-14.562,0.679-17.416c-4.153-2.854-11.486,0.299-16.012,6.885C148.345,24.174,148.033,32.149,152.187,35.004z
		 M171.006,7.604c1.413,0.971,2.487,2.268,3.252,3.78c-0.957-8.141-2.191-16.313-3.696-24.468c-0.32,3.073-1.344,6.344-3.134,9.513
		c-1.969,3.481-5.914,7.482-10.922,12.314C161.466,5.471,166.97,4.832,171.006,7.604z M148.807,2.839
		c4.39,2.481,11.419-1.301,15.351-8.259c3.933-6.955,3.545-14.928-0.845-17.407c-4.387-2.48-11.417,1.301-15.349,8.256
		C144.033-7.613,144.42,0.358,148.807,2.839z M165.161-26.1c1.447,0.818,2.603,1.974,3.486,3.357
		c-0.543-2.576-1.103-5.149-1.697-7.715c-1.236-5.341-2.59-10.654-4.047-15.927c-0.09,3.011-0.822,6.254-2.283,9.465
		c-1.657,3.64-5.238,7.971-9.807,13.224C155.47-27.392,160.897-28.509,165.161-26.1z M142.63-28.907
		c4.591,2.087,11.262-2.293,14.57-9.567c3.311-7.273,2.228-15.182-2.361-17.268c-4.587-2.088-11.26,2.292-14.568,9.565
		S138.043-30.995,142.63-28.907z M133.704-59.993c4.755,1.679,11.018-3.269,13.68-10.804c2.661-7.535,0.893-15.318-3.861-16.994
		c-4.752-1.681-11.017,3.267-13.678,10.801C127.185-69.456,128.953-61.672,133.704-59.993z M129.45-118.729
		c-4.88-1.259-10.689,4.217-12.682,11.954c-1.993,7.738,0.449,15.338,5.329,16.595c4.883,1.257,10.689-4.219,12.684-11.956
		C136.774-109.876,134.332-117.476,129.45-118.729z M151-110.563c7.477,2.817,15.296,1.213,17.073-3.505
		c1.777-4.716-3.038-11.081-10.514-13.899c-7.478-2.817-15.297-1.213-17.074,3.504C138.707-119.748,143.522-113.381,151-110.563z
		 M146.467-93.82l-1.035-2.502l-1.096-2.467c-0.729-1.643-1.455-3.278-2.179-4.908l-0.543-1.222l-0.271-0.609
		c-0.003-0.008-0.022-0.05-0.035-0.08l-0.072-0.141l-0.153-0.298l-1.224-2.378c-0.236-0.452-0.468-0.909-0.701-1.366
		c0.247,2.682,0.031,5.601-0.739,8.591c-0.997,3.872-3.771,8.761-7.354,14.727c3.942-4.448,9.091-6.493,13.708-4.862
		c1.42,0.502,2.65,1.318,3.698,2.363C147.802-90.594,147.123-92.205,146.467-93.82z M164.277-77.774
		c7.2,3.46,15.131,2.545,17.313-1.999s-2.058-11.305-9.261-14.766c-7.202-3.46-15.131-2.545-17.313,2
		C152.833-87.997,157.074-81.233,164.277-77.774z M154.389-73.378c-0.631-1.855-1.307-3.688-1.998-5.512
		c0.129,2.93-0.328,6.123-1.465,9.345c-1.332,3.771-4.521,8.398-8.614,14.028c4.317-4.088,9.627-5.674,14.084-3.647
		c1.44,0.656,2.642,1.643,3.62,2.857C158.261-62.064,156.386-67.764,154.389-73.378z M199.404-8.306
		c2.94-4.096-0.059-11.491-6.548-16.152c-6.492-4.66-14.46-5.14-17.399-1.043c-2.94,4.093,0.059,11.489,6.55,16.15
		C188.494-4.69,196.463-4.211,199.404-8.306z M25.78-140.589c6.927,7.721,13.136,28.622,28.237,51.031
		c-20.1-17.61-40.748-25.874-47.675-33.595c-1.679-1.87-3.01-3.868-3.999-5.89C2.301-122.006,2.252-114,2.197-105.206
		c0.434-0.63,0.928-1.222,1.512-1.746c5.451-4.89,15.146-2.671,22.071,5.052c6.927,7.721,13.136,28.622,28.237,51.031
		C33.918-68.48,13.27-76.743,6.343-84.464c-1.816-2.025-3.225-4.198-4.232-6.391C2.069-84.22,2.027-77.262,1.982-70.023
		c-0.005,1.267-0.01,2.541-0.016,3.824c0.479-0.758,1.058-1.451,1.742-2.064c5.451-4.891,15.146-2.671,22.071,5.052
		c6.927,7.721,13.136,28.622,28.237,51.031C33.918-29.792,13.27-38.055,6.343-45.775c-1.943-2.166-3.414-4.502-4.432-6.851
		c-0.021,5.181-0.042,10.458-0.064,15.824c-0.011,3.162-0.021,6.357-0.032,9.572c0.507-0.863,1.129-1.659,1.895-2.346
		c5.451-4.891,15.146-2.671,22.071,5.052c6.927,7.721,13.136,28.621,28.237,51.03C33.918,8.896,13.27,0.634,6.343-7.087
		c-2.034-2.268-3.556-4.721-4.573-7.18C1.74-5.717,1.71,2.96,1.68,11.707c0.528-0.961,1.191-1.843,2.029-2.594
		C9.16,4.223,18.854,6.442,25.78,14.164c6.927,7.721,13.136,28.621,28.237,51.031c-20.1-17.61-40.748-25.873-47.675-33.594
		c-2.118-2.362-3.69-4.926-4.706-7.486C1.623,27.875,1.61,31.64,1.598,35.406c-0.009,5.07-0.02,10.136-0.028,15.193
		c0.543-1.043,1.242-1.993,2.14-2.797c5.451-4.89,15.146-2.67,22.071,5.05c6.927,7.721,13.136,28.622,28.237,51.031
		C33.918,86.273,13.27,78.01,6.343,70.289c-2.179-2.43-3.785-5.072-4.797-7.706c-0.017,9.052-0.033,18.022-0.05,26.839
		c0.55-1.098,1.277-2.093,2.213-2.933c5.451-4.89,15.146-2.67,22.071,5.05c6.927,7.721,13.136,28.622,28.237,51.031
		c-20.1-17.609-40.748-25.873-47.675-33.594c-2.238-2.495-3.863-5.215-4.869-7.919c-0.004,2.194-0.008,4.388-0.013,6.555
		c-0.008,7.026-0.016,13.907-0.022,20.604c0.556-1.141,1.304-2.171,2.271-3.039c5.451-4.89,15.146-2.67,22.071,5.05
		c6.927,7.721,13.136,28.622,28.237,51.031c-20.1-17.609-40.748-25.873-47.675-33.594c-2.277-2.539-3.918-5.31-4.918-8.061
		c-0.011,9.644-0.021,18.822-0.03,27.382c0.558-1.175,1.324-2.232,2.314-3.12c5.451-4.89,15.146-2.67,22.071,5.05
		c6.927,7.721,13.136,28.622,28.237,51.031c-20.1-17.609-40.748-25.873-47.675-33.594c-2.313-2.578-3.967-5.396-4.962-8.19
		c-0.013,10.479-0.022,19.786-0.031,27.592c0.562-1.209,1.345-2.292,2.359-3.202c5.451-4.89,15.146-2.67,22.071,5.051
		c6.927,7.721,13.136,28.622,28.237,51.031c-20.1-17.609-40.748-25.873-47.675-33.594c-2.349-2.618-4.017-5.483-5.006-8.318
		c-0.003,2.059-0.004,3.939-0.006,5.61c0.009,2.088-0.055,3.865,0.107,5.305c0.122,1.169,0.327,2.105,0.527,2.819
		c6.215,1.468,10.815,8.932,10.815,18.217c0,10.373-9.335,30.077-13.057,56.842c-3.204-26.531-13.057-46.47-13.057-56.842
		c0-9.285,4.601-16.749,10.815-18.217c0.2-0.714,0.405-1.65,0.527-2.819c0.161-1.44,0.098-3.217,0.107-5.305
		c-0.001-1.279-0.003-2.689-0.005-4.197c-1.017,2.366-2.496,4.722-4.455,6.905c-6.926,7.721-27.575,15.984-47.676,33.594
		c15.103-22.409,21.312-43.31,28.238-51.031c6.926-7.721,16.621-9.94,22.071-5.051c0.719,0.646,1.316,1.382,1.807,2.184
		c-0.008-7.242-0.018-15.718-0.029-25.188c-1.016,2.333-2.48,4.652-4.411,6.804c-6.926,7.721-27.575,15.984-47.676,33.594
		c15.103-22.409,21.312-43.31,28.238-51.031c6.926-7.721,16.621-9.94,22.071-5.05c0.696,0.624,1.28,1.331,1.762,2.103
		c-0.008-7.866-0.018-16.232-0.028-25.004c-1.014,2.297-2.465,4.581-4.367,6.701c-6.926,7.721-27.575,15.984-47.676,33.594
		c15.103-22.409,21.312-43.31,28.238-51.031c6.926-7.721,16.621-9.94,22.071-5.05c0.674,0.604,1.245,1.286,1.718,2.029
		c-0.007-6.379-0.015-12.919-0.022-19.594c-0.003-1.728-0.006-3.481-0.01-5.227c-1.012,2.26-2.448,4.504-4.319,6.591
		c-6.926,7.721-27.575,15.984-47.676,33.594c15.103-22.409,21.312-43.31,28.238-51.031c6.926-7.721,16.621-9.94,22.071-5.05
		c0.648,0.581,1.197,1.238,1.66,1.949c-0.016-8.083-0.031-16.291-0.047-24.571c-1.008,2.203-2.421,4.388-4.246,6.422
		c-6.926,7.721-27.575,15.984-47.676,33.594c15.103-22.41,21.312-43.31,28.238-51.031c6.926-7.721,16.621-9.94,22.071-5.05
		c0.617,0.553,1.137,1.178,1.586,1.849c-0.009-4.742-0.019-9.491-0.027-14.244c-0.011-3.343-0.023-6.684-0.034-10.022
		c-1.002,2.134-2.389,4.246-4.158,6.218c-6.926,7.721-27.575,15.984-47.676,33.594c15.103-22.41,21.312-43.31,28.238-51.031
		C-18.854,6.442-9.16,4.223-3.709,9.113c0.569,0.51,1.049,1.086,1.475,1.696C-2.263,2.788-2.29-5.172-2.317-13.028
		c-0.991,2.04-2.333,4.055-4.025,5.941c-6.926,7.721-27.575,15.983-47.676,33.594c15.103-22.409,21.312-43.31,28.238-51.03
		c6.926-7.723,16.621-9.942,22.071-5.052c0.511,0.459,0.945,0.973,1.34,1.514c-0.01-2.936-0.02-5.85-0.03-8.74
		c-0.02-4.959-0.04-9.842-0.06-14.646c-0.978,1.947-2.266,3.869-3.883,5.672c-6.926,7.721-27.575,15.983-47.676,33.595
		C-38.916-34.59-32.707-55.491-25.78-63.212c6.926-7.723,16.621-9.942,22.071-5.052c0.445,0.399,0.83,0.843,1.188,1.305
		c-0.004-1.025-0.008-2.051-0.013-3.064c-0.042-6.839-0.083-13.433-0.121-19.736c-0.954,1.818-2.174,3.609-3.687,5.296
		c-6.926,7.721-27.575,15.983-47.676,33.595C-38.916-73.278-32.707-94.18-25.78-101.9c6.926-7.723,16.621-9.941,22.071-5.052
		c0.345,0.31,0.662,0.64,0.955,0.987c-0.05-8.067-0.095-15.461-0.135-22.036c-0.918,1.664-2.064,3.301-3.453,4.849
		c-6.926,7.721-27.575,15.984-47.676,33.595c15.103-22.409,21.312-43.311,28.238-51.031c6.926-7.723,16.621-9.941,22.071-5.052
		c0.258,0.231,0.488,0.484,0.716,0.737c-0.063-10.4-0.1-16.34-0.1-16.34h5.634c0,0-0.037,6.194-0.104,17.022
		c0.379-0.505,0.791-0.988,1.272-1.42C9.16-150.53,18.854-148.312,25.78-140.589z M9.139-125.66
		c5.336,5.947,13.014,8.128,16.767,4.762c3.751-3.365,2.414-11.234-2.922-17.183c-5.336-5.947-13.014-8.128-16.766-4.762
		C2.465-139.478,3.803-131.608,9.139-125.66z M9.139-86.972c5.336,5.947,13.014,8.128,16.767,4.762
		c3.751-3.365,2.414-11.234-2.922-17.183c-5.336-5.947-13.014-8.128-16.766-4.762C2.465-100.789,3.803-92.92,9.139-86.972z
		 M9.139-48.283c5.336,5.947,13.014,8.128,16.767,4.762c3.751-3.365,2.414-11.234-2.922-17.184
		c-5.336-5.946-13.014-8.127-16.766-4.762C2.465-62.101,3.803-54.231,9.139-48.283z M9.139-9.596
		c5.336,5.948,13.014,8.129,16.767,4.763c3.751-3.365,2.414-11.234-2.922-17.184c-5.336-5.946-13.014-8.127-16.766-4.762
		C2.465-23.412,3.803-15.543,9.139-9.596z M9.139,29.093c5.336,5.948,13.014,8.128,16.767,4.762
		c3.751-3.366,2.414-11.234-2.922-17.183C17.647,10.725,9.97,8.544,6.218,11.909C2.465,15.275,3.803,23.145,9.139,29.093z
		 M9.139,67.78c5.336,5.948,13.014,8.129,16.767,4.763c3.751-3.366,2.414-11.235-2.922-17.182
		c-5.336-5.948-13.014-8.129-16.766-4.763C2.465,53.963,3.803,61.833,9.139,67.78z M9.139,106.468
		c5.336,5.948,13.014,8.129,16.767,4.763c3.751-3.366,2.414-11.235-2.922-17.182c-5.336-5.948-13.014-8.129-16.766-4.763
		C2.465,92.651,3.803,100.521,9.139,106.468z M9.139,145.156c5.336,5.948,13.014,8.129,16.767,4.763
		c3.751-3.366,2.414-11.235-2.922-17.183s-13.014-8.129-16.766-4.763C2.465,131.339,3.803,139.208,9.139,145.156z M9.139,183.844
		c5.336,5.948,13.014,8.128,16.767,4.763c3.751-3.366,2.414-11.235-2.922-17.183s-13.014-8.129-16.766-4.763
		C2.465,170.027,3.803,177.896,9.139,183.844z M9.139,222.532c5.336,5.948,13.014,8.128,16.767,4.763
		c3.751-3.366,2.414-11.235-2.922-17.183s-13.014-8.129-16.766-4.763C2.465,208.715,3.803,216.584,9.139,222.532z M-6.218,205.349
		c-3.752-3.366-11.43-1.185-16.766,4.763s-6.673,13.817-2.921,17.183s11.43,1.186,16.766-4.763S-2.466,208.715-6.218,205.349z
		 M-6.218,166.661c-3.752-3.366-11.43-1.185-16.766,4.763s-6.673,13.817-2.921,17.183s11.43,1.186,16.766-4.763
		C-3.803,177.896-2.466,170.027-6.218,166.661z M-6.218,127.974c-3.752-3.366-11.43-1.185-16.766,4.763s-6.673,13.817-2.921,17.183
		c3.752,3.366,11.43,1.186,16.766-4.763C-3.803,139.208-2.466,131.339-6.218,127.974z M-6.218,89.286
		c-3.752-3.366-11.43-1.185-16.766,4.763c-5.336,5.947-6.673,13.816-2.921,17.182c3.752,3.366,11.43,1.186,16.766-4.763
		C-3.803,100.521-2.466,92.651-6.218,89.286z M-6.218,50.598c-3.752-3.366-11.43-1.185-16.766,4.763
		c-5.336,5.947-6.673,13.816-2.921,17.182c3.752,3.366,11.43,1.186,16.766-4.763C-3.803,61.833-2.466,53.963-6.218,50.598z
		 M-6.218,11.909c-3.752-3.365-11.43-1.185-16.766,4.763c-5.336,5.949-6.673,13.817-2.921,17.183
		c3.752,3.366,11.43,1.186,16.766-4.762C-3.803,23.145-2.466,15.275-6.218,11.909z M-6.218-26.778
		c-3.752-3.365-11.43-1.185-16.766,4.762c-5.336,5.949-6.673,13.818-2.921,17.184c3.752,3.366,11.43,1.186,16.766-4.763
		C-3.803-15.543-2.466-23.412-6.218-26.778z M-6.218-65.467c-3.752-3.365-11.43-1.185-16.766,4.762
		c-5.336,5.949-6.673,13.818-2.921,17.184c3.752,3.366,11.43,1.186,16.766-4.762C-3.803-54.231-2.466-62.101-6.218-65.467z
		 M-6.218-104.154c-3.752-3.366-11.43-1.186-16.766,4.762c-5.336,5.948-6.673,13.817-2.921,17.183
		c3.752,3.366,11.43,1.186,16.766-4.762C-3.803-92.92-2.466-100.789-6.218-104.154z M-6.218-142.843
		c-3.752-3.366-11.43-1.186-16.766,4.762c-5.336,5.948-6.673,13.817-2.921,17.183c3.752,3.366,11.43,1.186,16.766-4.762
		C-3.803-131.608-2.466-139.478-6.218-142.843z M-9.576,248.674c0,7.991,4.259,14.741,9.3,14.741c5.042,0,9.3-6.75,9.3-14.741
		s-4.259-14.741-9.3-14.741C-5.317,233.933-9.576,240.683-9.576,248.674z M-165.029-227.6c6.169,1.129,12.561-0.393,19.176-4.567
		c6.615-4.173,10.741-9.287,12.378-15.342c1.637-6.055,0.513-12.159-3.372-18.316c-3.885-6.156-8.912-9.8-15.081-10.929
		c-6.169-1.13-12.562,0.394-19.176,4.567c-6.616,4.174-10.741,9.287-12.378,15.342c-1.637,6.054-0.513,12.159,3.371,18.316
		C-176.225-232.371-171.199-228.729-165.029-227.6z M-175.881-259.296c0.253-4.593,2.323-8.113,6.208-10.564
		c3.884-2.451,7.962-2.809,12.236-1.072c4.271,1.736,8.131,5.335,11.576,10.796c3.445,5.46,5.032,10.492,4.76,15.097
		c-0.273,4.604-2.351,8.131-6.235,10.582c-3.885,2.451-7.955,2.802-12.208,1.055c-4.254-1.749-8.104-5.353-11.549-10.813
		C-174.54-249.678-176.136-254.704-175.881-259.296z M-121.823-296.589l-18.963,7.893l0.25,0.6l0.78-0.324
		c1.44-0.6,2.798-0.438,4.075,0.486c0.553,0.427,0.991,0.972,1.314,1.636l13.887,33.365c0.393,1.057,0.369,2.1-0.071,3.128
		c-0.441,1.028-1.181,1.759-2.221,2.191l-0.78,0.324l0.25,0.601l17.403-7.243c4.641-1.932,7.981-4.308,10.023-7.129
		c2.041-2.82,2.357-5.979,0.949-9.477c-0.773-1.744-1.794-3.126-3.063-4.146c-2.353-1.932-5.024-2.485-8.014-1.663
		c2.963-1.563,5.024-3.771,6.185-6.623c1.159-2.853,1.09-5.839-0.209-8.96c-1.565-3.761-4.279-6.022-8.14-6.785
		C-112.031-299.479-116.582-298.771-121.823-296.589z M-104.854-267.322c2.307,5.657,0.92,9.544-4.16,11.658l-1.74,0.725
		l-15.261-36.666l2.761-1.149c0.039-0.016,0.08-0.033,0.12-0.05c2.761-1.148,5.293-1.265,7.6-0.347
		c2.306,0.917,4.142,3.017,5.508,6.297c1.365,3.28,1.46,6.104,0.287,8.471c-1.175,2.365-3.222,4.157-6.142,5.372l0.225,0.54
		c2.08-0.865,4.099-0.92,6.058-0.162C-107.642-271.877-106.06-270.106-104.854-267.322z M-95.548-305.856
		c1.091-0.277,2.124-0.128,3.1,0.452c0.974,0.579,1.622,1.409,1.942,2.49l8.929,35.087c0.193,1.113,0.082,1.991-0.336,2.635
		c-0.772,1.18-1.685,1.904-2.734,2.171l-0.819,0.208l0.161,0.63l24.126-6.14c2.057-0.523,3.798-0.799,5.223-0.825
		c1.423-0.027,2.298-0.016,2.625,0.036l-2.806-11.024l-0.614,0.224l0.176,0.693c0.663,2.604,0.166,4.696-1.487,6.28
		c-0.786,0.78-1.802,1.353-3.051,1.716l-10.583,2.693l-4.665-18.331l8.315-2.116c1.564-0.354,2.981-0.145,4.251,0.629
		c1.27,0.771,2.097,1.914,2.481,3.426l0.145,0.567l0.63-0.161l-3.703-14.551l-0.63,0.16l0.128,0.504
		c0.395,1.554,0.227,2.961-0.502,4.22c-0.731,1.259-1.847,2.102-3.348,2.528l-8.441,2.148l-4.504-17.701l8.252-2.1
		c3.065-0.78,5.862-0.553,8.39,0.682c2.528,1.234,4.707,3.34,6.538,6.317l0.63-0.16l-6.167-12.112l-32.63,8.304l0.161,0.63
		L-95.548-305.856z M-11.721-288.466c-0.212-1.982-0.801-3.815-1.766-5.498c-1.83-3.247-4.793-5.283-8.891-6.107
		c-1.205-0.264-2.303-0.342-3.294-0.235c-3.06,0.327-5.71,1.417-7.952,3.271l0.069,0.646c3.222-0.434,5.942,0.344,8.16,2.329
		c1.926,1.711,3.053,4.096,3.381,7.155c0.332,3.102-0.154,5.583-1.458,7.445c-1.304,1.86-3.228,2.928-5.769,3.2l-4.331,0.464
		l-4.05-37.809c-0.12-1.121,0.186-2.123,0.92-3.008c0.732-0.886,1.659-1.388,2.78-1.507l0.84-0.091l-0.069-0.646l-19.648,2.104
		l0.069,0.646l0.84-0.09c1.12-0.12,2.121,0.175,3.004,0.887c0.882,0.712,1.405,1.625,1.568,2.741l3.871,36.129
		c0.115,1.076-0.199,2.015-0.94,2.813c-0.743,0.799-1.674,1.258-2.794,1.378l-0.84,0.09l0.069,0.646l21.586-2.313
		c5.256-0.563,9.1-2.109,11.532-4.635C-12.33-281.123-11.292-284.459-11.721-288.466z M25.535-318.956
		c1.123,0.066,1.973,0.398,2.545,0.997c0.936,1.053,1.393,2.143,1.369,3.271l-0.977,16.547l-21.023-1.241l0.973-16.481
		c0.066-1.125,0.535-2.063,1.404-2.814s1.865-1.095,2.99-1.028l0.779,0.046l0.104-0.645l-19.727-1.164l-0.038,0.648l0.843,0.05
		c1.125,0.066,2.063,0.522,2.817,1.371c0.752,0.847,1.118,1.834,1.095,2.962l-2.122,35.947c-0.11,1.122-0.588,2.06-1.436,2.813
		c-0.848,0.752-1.834,1.096-2.958,1.029l-0.843-0.05l-0.039,0.649l19.726,1.164l-0.027-0.652l-0.777-0.047
		c-1.125-0.066-2.076-0.523-2.85-1.372c-0.775-0.85-1.129-1.836-1.063-2.96l0.984-16.677l21.023,1.241l-0.984,16.676
		c-0.109,1.122-0.588,2.06-1.436,2.813s-1.834,1.097-2.959,1.03l-0.844-0.05l-0.037,0.649l19.725,1.164l0.039-0.649l-0.844-0.05
		c-1.125-0.066-2.074-0.524-2.85-1.372c-0.773-0.85-1.129-1.836-1.063-2.961l2.123-35.947c0.066-1.125,0.533-2.063,1.402-2.814
		c0.869-0.753,1.865-1.095,2.99-1.028l0.844,0.05l0.039-0.648l-19.727-1.164l-0.037,0.648L25.535-318.956z M55.043-315.638
		c1.098,0.251,1.948,0.855,2.552,1.816c0.603,0.96,0.8,1.994,0.591,3.103l-8.064,35.296c-0.336,1.078-0.836,1.809-1.5,2.19
		c-1.227,0.697-2.368,0.926-3.424,0.685l-0.823-0.188l-0.146,0.634l24.27,5.545c2.069,0.474,3.744,1.022,5.024,1.648
		c1.279,0.626,2.053,1.035,2.319,1.229l2.534-11.089l-0.648-0.081l-0.159,0.696c-0.599,2.619-1.995,4.256-4.189,4.911
		c-1.055,0.336-2.221,0.381-3.497,0.134l-10.646-2.433l4.214-18.439l8.364,1.911c1.553,0.398,2.719,1.231,3.496,2.499
		c0.777,1.267,0.992,2.66,0.645,4.182l-0.13,0.57l0.634,0.145l3.344-14.638l-0.633-0.146l-0.116,0.508
		c-0.357,1.562-1.148,2.737-2.372,3.524c-1.225,0.787-2.602,1.028-4.133,0.723l-8.491-1.939l4.068-17.807l8.302,1.896
		c3.083,0.705,5.469,2.184,7.154,4.436s2.664,5.119,2.935,8.604l0.634,0.145l0.038-13.593l-32.824-7.499l-0.145,0.634
		L55.043-315.638z M127.685-293.469c1.041,0.43,1.735,1.02,2.082,1.772c0.542,1.301,0.618,2.479,0.229,3.539l-6.313,15.325
		l-19.473-8.021l6.288-15.266c0.43-1.042,1.177-1.776,2.244-2.204c1.066-0.429,2.12-0.427,3.162,0.003l0.722,0.297l0.308-0.576
		l-18.271-7.526l-0.248,0.601l0.781,0.322c1.042,0.429,1.78,1.166,2.217,2.213c0.436,1.047,0.459,2.099,0.07,3.157l-13.716,33.296
		c-0.47,1.025-1.228,1.755-2.273,2.192c-1.047,0.435-2.091,0.438-3.133,0.01l-0.781-0.322l-0.247,0.602l18.271,7.526l0.188-0.626
		l-0.722-0.297c-1.042-0.43-1.791-1.172-2.246-2.227c-0.456-1.056-0.47-2.104-0.041-3.145l6.363-15.446l19.473,8.021l-6.363,15.446
		c-0.469,1.024-1.227,1.755-2.273,2.191c-1.047,0.436-2.091,0.439-3.133,0.011l-0.781-0.322l-0.247,0.601l18.271,7.526l0.247-0.601
		l-0.781-0.322c-1.042-0.429-1.791-1.171-2.246-2.226c-0.456-1.056-0.469-2.104-0.04-3.145l13.716-33.296
		c0.429-1.042,1.177-1.777,2.243-2.204c1.066-0.429,2.12-0.427,3.163,0.002l0.781,0.322l0.247-0.602l-18.271-7.526l-0.247,0.602
		L127.685-293.469z M181.124-263.796c0.94,0.62,1.509,1.332,1.706,2.137c0.283,1.38,0.134,2.552-0.45,3.518l-9.119,13.841
		l-17.586-11.587l9.084-13.787c0.62-0.941,1.494-1.52,2.622-1.735c1.129-0.218,2.163-0.016,3.104,0.605l0.651,0.429l0.412-0.507
		l-16.501-10.872l-0.357,0.543l0.706,0.465c0.94,0.62,1.524,1.484,1.754,2.596c0.228,1.109,0.05,2.147-0.533,3.112l-19.813,30.07
		c-0.656,0.916-1.54,1.488-2.65,1.718c-1.11,0.228-2.137,0.032-3.077-0.588l-0.705-0.465l-0.357,0.543l16.5,10.872l0.304-0.579
		l-0.651-0.429c-0.941-0.62-1.535-1.492-1.781-2.613c-0.246-1.123-0.06-2.154,0.561-3.095l9.19-13.949l17.586,11.587l-9.19,13.949
		c-0.656,0.916-1.54,1.489-2.65,1.718c-1.11,0.228-2.137,0.032-3.077-0.587l-0.705-0.465l-0.357,0.542l16.5,10.872l0.357-0.543
		l-0.706-0.465c-0.94-0.62-1.534-1.491-1.78-2.613c-0.246-1.123-0.06-2.154,0.56-3.095l19.813-30.069
		c0.62-0.941,1.493-1.521,2.622-1.736c1.129-0.217,2.163-0.015,3.104,0.605l0.705,0.465l0.358-0.543l-16.501-10.872l-0.357,0.543
		L181.124-263.796z M196.785-196.366c-1.602-1.584-2.376-3.443-2.322-5.574c0.055-2.131,1.305-4.484,3.753-7.059
		c0.358-0.377,0.914-0.836,1.666-1.375c2.199-1.559,4.243-2.244,6.134-2.063c1.89,0.183,3.54,0.945,4.954,2.291l1.46,1.388
		l0.448-0.472c-1.077-1.383-1.144-3.449-0.202-6.201c2.111-6.244,3.362-10.168,3.751-11.772c0.696-2.807,0.485-5.43-0.635-7.869
		c-1.117-2.439-3.044-4.958-5.775-7.556l-4.616-4.391l-0.448,0.472c1.196,1.195,1.963,2.433,2.301,3.713
		c0.647,2.588,0.083,8.21-1.692,16.869c-0.678,3.481-0.391,6.385,0.862,8.714c-2.75-2.139-5.622-2.955-8.613-2.45
		c-2.991,0.503-5.39,1.706-7.195,3.604c-1.808,1.9-2.957,3.738-3.448,5.513c-0.492,1.774-0.519,3.499-0.078,5.174
		c0.85,3.32,2.799,6.429,5.844,9.325l16.153,15.365l0.449-0.473l-0.613-0.582c-0.815-0.776-1.237-1.73-1.267-2.864
		c-0.027-1.135,0.33-2.122,1.075-2.969l24.861-26.141c0.54-0.505,1.144-0.856,1.813-1.058c1.522-0.406,2.849-0.07,3.979,1.003
		l0.613,0.583l0.448-0.471l-14.319-13.617l-0.447,0.471l0.612,0.582c0.816,0.776,1.24,1.731,1.268,2.865
		c0.029,1.133-0.329,2.123-1.076,2.969l-26.114,27.459c-0.031-0.029-0.078-0.074-0.142-0.135l-2.025-1.926
		C197.571-195.619,197.101-196.067,196.785-196.366z M-169.071-218.429l-0.443-0.476l-0.618,0.577
		c-0.824,0.769-1.811,1.141-2.959,1.115c-1.15-0.024-2.108-0.448-2.876-1.272l-24.565-26.329c-0.769-0.824-1.126-1.81-1.07-2.958
		c0.054-1.147,0.494-2.105,1.318-2.874l0.618-0.576l-0.443-0.476l-14.448,13.479l0.443,0.476l0.618-0.576
		c0.824-0.769,1.649-1.154,2.478-1.156c1.408,0.049,2.512,0.471,3.313,1.265l11.307,12.119l1.907,2.044l10.796,11.571l1.924,2.063
		l-6.135,5.724l-9.263,8.643l-2.147-2.301l-10.573-11.332l-1.907-2.044l-11.263-12.072c-0.769-0.824-1.125-1.81-1.07-2.957
		c0.054-1.147,0.494-2.105,1.319-2.875l0.57-0.532l-0.396-0.52l-14.448,13.48l0.443,0.476l0.618-0.577
		c0.823-0.768,1.801-1.133,2.935-1.094c1.132,0.039,2.099,0.456,2.9,1.25l24.565,26.33c0.737,0.854,1.085,1.847,1.046,2.979
		c-0.04,1.134-0.471,2.084-1.294,2.853l-0.618,0.576l0.443,0.476l14.448-13.48l-0.021,0.009l5.62-5.243l2.488-2.322l-0.007,0.019
		L-169.071-218.429z"/>
</symbol>
<use xlink:href="#New_Symbol"  width="699.082" height="699.082" x="-349.541" y="-349.541" transform="matrix(1 0 0 -1 349.541 349.5405)" overflow="visible"/>
</svg>
